P3
1 256
255
0 0 0
3 3 3
6 6 6
9 9 9
12 12 12
15 15 15
18 18 18
21 21 21
25 25 25
28 28 28
31 31 31
34 34 34
37 37 37
40 40 40
43 43 43
46 46 46
49 49 49
53 53 53
56 56 56
59 59 59
62 62 62
65 65 65
68 68 68
71 71 71
74 74 74
77 77 77
80 80 80
83 83 83
86 86 86
89 89 89
92 92 92
95 95 95
97 97 97
100 100 100
103 103 103
106 106 106
109 109 109
112 112 112
115 115 115
117 117 117
120 120 120
123 123 123
126 126 126
128 128 128
131 131 131
134 134 134
136 136 136
139 139 139
142 142 142
144 144 144
147 147 147
149 149 149
152 152 152
154 154 154
157 157 157
159 159 159
162 162 162
164 164 164
167 167 167
169 169 169
171 171 171
174 174 174
176 176 176
178 178 178
180 180 180
183 183 183
185 185 185
187 187 187
189 189 189
191 191 191
193 193 193
195 195 195
197 197 197
199 199 199
201 201 201
203 203 203
205 205 205
207 207 207
209 209 209
210 210 210
212 212 212
214 214 214
215 215 215
217 217 217
219 219 219
220 220 220
222 222 222
223 223 223
225 225 225
226 226 226
228 228 228
229 229 229
230 230 230
232 232 232
233 233 233
234 234 234
236 236 236
237 237 237
238 238 238
239 239 239
240 240 240
241 241 241
242 242 242
243 243 243
244 244 244
245 245 245
246 246 246
246 246 246
247 247 247
248 248 248
249 249 249
249 249 249
250 250 250
250 250 250
251 251 251
251 251 251
252 252 252
252 252 252
253 253 253
253 253 253
253 253 253
254 254 254
254 254 254
254 254 254
254 254 254
254 254 254
254 254 254
254 254 254
254 254 254
254 254 254
254 254 254
254 254 254
254 254 254
254 254 254
254 254 254
253 253 253
253 253 253
253 253 253
252 252 252
252 252 252
251 251 251
251 251 251
250 250 250
250 250 250
249 249 249
249 249 249
248 248 248
247 247 247
246 246 246
246 246 246
245 245 245
244 244 244
243 243 243
242 242 242
241 241 241
240 240 240
239 239 239
238 238 238
237 237 237
236 236 236
234 234 234
233 233 233
232 232 232
230 230 230
229 229 229
228 228 228
226 226 226
225 225 225
223 223 223
222 222 222
220 220 220
219 219 219
217 217 217
215 215 215
214 214 214
212 212 212
210 210 210
209 209 209
207 207 207
205 205 205
203 203 203
201 201 201
199 199 199
197 197 197
195 195 195
193 193 193
191 191 191
189 189 189
187 187 187
185 185 185
183 183 183
180 180 180
178 178 178
176 176 176
174 174 174
171 171 171
169 169 169
167 167 167
164 164 164
162 162 162
159 159 159
157 157 157
154 154 154
152 152 152
149 149 149
147 147 147
144 144 144
142 142 142
139 139 139
136 136 136
134 134 134
131 131 131
128 128 128
126 126 126
123 123 123
120 120 120
117 117 117
115 115 115
112 112 112
109 109 109
106 106 106
103 103 103
100 100 100
97 97 97
95 95 95
92 92 92
89 89 89
86 86 86
83 83 83
80 80 80
77 77 77
74 74 74
71 71 71
68 68 68
65 65 65
62 62 62
59 59 59
56 56 56
53 53 53
49 49 49
46 46 46
43 43 43
40 40 40
37 37 37
34 34 34
31 31 31
28 28 28
25 25 25
21 21 21
18 18 18
15 15 15
12 12 12
9 9 9
6 6 6
3 3 3
0 0 0
