P3
1 256
255
0 0 0
12 12 12
25 25 25
37 37 37
49 49 49
62 62 62
74 74 74
86 86 86
97 97 97
109 109 109
120 120 120
131 131 131
142 142 142
152 152 152
162 162 162
171 171 171
180 180 180
189 189 189
197 197 197
205 205 205
212 212 212
219 219 219
225 225 225
230 230 230
236 236 236
240 240 240
244 244 244
247 247 247
250 250 250
252 252 252
253 253 253
254 254 254
254 254 254
254 254 254
253 253 253
251 251 251
249 249 249
246 246 246
243 243 243
239 239 239
234 234 234
229 229 229
223 223 223
217 217 217
210 210 210
203 203 203
195 195 195
187 187 187
178 178 178
169 169 169
159 159 159
149 149 149
139 139 139
128 128 128
117 117 117
106 106 106
95 95 95
83 83 83
71 71 71
59 59 59
46 46 46
34 34 34
21 21 21
9 9 9
3 3 3
15 15 15
28 28 28
40 40 40
53 53 53
65 65 65
77 77 77
89 89 89
100 100 100
112 112 112
123 123 123
134 134 134
144 144 144
154 154 154
164 164 164
174 174 174
183 183 183
191 191 191
199 199 199
207 207 207
214 214 214
220 220 220
226 226 226
232 232 232
237 237 237
241 241 241
245 245 245
248 248 248
250 250 250
252 252 252
254 254 254
254 254 254
254 254 254
254 254 254
253 253 253
251 251 251
249 249 249
246 246 246
242 242 242
238 238 238
233 233 233
228 228 228
222 222 222
215 215 215
209 209 209
201 201 201
193 193 193
185 185 185
176 176 176
167 167 167
157 157 157
147 147 147
136 136 136
126 126 126
115 115 115
103 103 103
92 92 92
80 80 80
68 68 68
56 56 56
43 43 43
31 31 31
18 18 18
6 6 6
6 6 6
18 18 18
31 31 31
43 43 43
56 56 56
68 68 68
80 80 80
92 92 92
103 103 103
115 115 115
126 126 126
136 136 136
147 147 147
157 157 157
167 167 167
176 176 176
185 185 185
193 193 193
201 201 201
209 209 209
215 215 215
222 222 222
228 228 228
233 233 233
238 238 238
242 242 242
246 246 246
249 249 249
251 251 251
253 253 253
254 254 254
254 254 254
254 254 254
254 254 254
252 252 252
250 250 250
248 248 248
245 245 245
241 241 241
237 237 237
232 232 232
226 226 226
220 220 220
214 214 214
207 207 207
199 199 199
191 191 191
183 183 183
174 174 174
164 164 164
154 154 154
144 144 144
134 134 134
123 123 123
112 112 112
100 100 100
89 89 89
77 77 77
65 65 65
53 53 53
40 40 40
28 28 28
15 15 15
3 3 3
9 9 9
21 21 21
34 34 34
46 46 46
59 59 59
71 71 71
83 83 83
95 95 95
106 106 106
117 117 117
128 128 128
139 139 139
149 149 149
159 159 159
169 169 169
178 178 178
187 187 187
195 195 195
203 203 203
210 210 210
217 217 217
223 223 223
229 229 229
234 234 234
239 239 239
243 243 243
246 246 246
249 249 249
251 251 251
253 253 253
254 254 254
254 254 254
254 254 254
253 253 253
252 252 252
250 250 250
247 247 247
244 244 244
240 240 240
236 236 236
230 230 230
225 225 225
219 219 219
212 212 212
205 205 205
197 197 197
189 189 189
180 180 180
171 171 171
162 162 162
152 152 152
142 142 142
131 131 131
120 120 120
109 109 109
97 97 97
86 86 86
74 74 74
62 62 62
49 49 49
37 37 37
25 25 25
12 12 12
0 0 0
