P3
1 256
255
0 0 0
2 2 2
10 10 10
22 22 22
38 38 38
57 57 57
79 79 79
103 103 103
128 128 128
153 153 153
177 177 177
199 199 199
218 218 218
234 234 234
246 246 246
253 253 253
255 255 255
252 252 252
245 245 245
232 232 232
216 216 216
197 197 197
174 174 174
150 150 150
125 125 125
100 100 100
76 76 76
54 54 54
35 35 35
20 20 20
9 9 9
2 2 2
0 0 0
3 3 3
11 11 11
23 23 23
40 40 40
60 60 60
82 82 82
106 106 106
131 131 131
156 156 156
180 180 180
202 202 202
221 221 221
236 236 236
247 247 247
253 253 253
255 255 255
252 252 252
243 243 243
231 231 231
214 214 214
194 194 194
171 171 171
147 147 147
122 122 122
97 97 97
73 73 73
52 52 52
33 33 33
18 18 18
8 8 8
1 1 1
0 0 0
4 4 4
12 12 12
25 25 25
42 42 42
62 62 62
85 85 85
109 109 109
135 135 135
159 159 159
183 183 183
204 204 204
223 223 223
238 238 238
248 248 248
254 254 254
255 255 255
251 251 251
242 242 242
229 229 229
212 212 212
191 191 191
168 168 168
144 144 144
119 119 119
94 94 94
71 71 71
49 49 49
31 31 31
17 17 17
6 6 6
1 1 1
0 0 0
5 5 5
14 14 14
27 27 27
45 45 45
65 65 65
88 88 88
113 113 113
138 138 138
162 162 162
186 186 186
207 207 207
225 225 225
239 239 239
249 249 249
254 254 254
255 255 255
250 250 250
241 241 241
227 227 227
209 209 209
189 189 189
165 165 165
141 141 141
116 116 116
91 91 91
68 68 68
47 47 47
29 29 29
15 15 15
6 6 6
1 1 1
1 1 1
6 6 6
15 15 15
29 29 29
47 47 47
68 68 68
91 91 91
116 116 116
141 141 141
165 165 165
189 189 189
209 209 209
227 227 227
241 241 241
250 250 250
255 255 255
254 254 254
249 249 249
239 239 239
225 225 225
207 207 207
186 186 186
162 162 162
138 138 138
113 113 113
88 88 88
65 65 65
45 45 45
27 27 27
14 14 14
5 5 5
0 0 0
1 1 1
6 6 6
17 17 17
31 31 31
49 49 49
71 71 71
94 94 94
119 119 119
144 144 144
168 168 168
191 191 191
212 212 212
229 229 229
242 242 242
251 251 251
255 255 255
254 254 254
248 248 248
238 238 238
223 223 223
204 204 204
183 183 183
159 159 159
135 135 135
109 109 109
85 85 85
62 62 62
42 42 42
25 25 25
12 12 12
4 4 4
0 0 0
1 1 1
8 8 8
18 18 18
33 33 33
52 52 52
73 73 73
97 97 97
122 122 122
147 147 147
171 171 171
194 194 194
214 214 214
231 231 231
243 243 243
252 252 252
255 255 255
253 253 253
247 247 247
236 236 236
221 221 221
202 202 202
180 180 180
156 156 156
131 131 131
106 106 106
82 82 82
60 60 60
40 40 40
23 23 23
11 11 11
3 3 3
0 0 0
2 2 2
9 9 9
20 20 20
35 35 35
54 54 54
76 76 76
100 100 100
125 125 125
150 150 150
174 174 174
197 197 197
216 216 216
232 232 232
245 245 245
252 252 252
255 255 255
253 253 253
246 246 246
234 234 234
218 218 218
199 199 199
177 177 177
153 153 153
128 128 128
103 103 103
79 79 79
57 57 57
38 38 38
22 22 22
10 10 10
2 2 2
0 0 0
