P3
1 256
255
0 0 255
32 2 253
45 4 251
55 6 249
63 8 247
70 10 245
76 12 243
82 14 241
87 16 239
92 18 237
97 20 235
101 22 233
105 24 231
109 26 229
113 28 227
116 30 225
119 32 223
123 34 221
126 36 219
128 38 217
131 40 215
134 42 213
136 44 211
139 46 209
141 48 207
143 50 205
145 52 203
147 54 201
149 56 199
151 58 197
153 60 195
155 62 193
156 64 191
158 66 189
159 68 187
161 70 185
162 72 183
164 74 181
165 76 179
166 78 177
167 80 175
168 82 173
169 84 171
170 86 169
171 88 167
172 90 165
173 92 163
174 94 161
175 96 159
175 98 157
176 100 155
177 102 153
177 104 151
178 106 149
178 108 147
179 110 145
179 112 143
179 114 141
180 116 139
180 118 137
180 120 135
180 122 133
180 124 131
180 126 129
180 128 127
180 130 125
180 132 123
180 134 121
180 136 119
180 138 117
179 140 115
179 142 113
179 144 111
178 146 109
178 148 107
177 150 105
177 152 103
176 154 101
176 156 99
175 158 97
174 160 95
174 162 93
173 164 91
172 166 89
171 168 87
170 170 85
169 172 83
168 174 81
167 176 79
166 178 77
164 180 75
163 182 73
162 184 71
160 186 69
159 188 67
157 190 65
156 192 63
154 194 61
152 196 59
150 198 57
148 200 55
146 202 53
144 204 51
142 206 49
140 208 47
137 210 45
135 212 43
132 214 41
130 216 39
127 218 37
124 220 35
121 222 33
118 224 31
114 226 29
111 228 27
107 230 25
103 232 23
99 234 21
95 236 19
90 238 17
85 240 15
79 242 13
73 244 11
67 246 9
59 248 7
50 250 5
39 252 3
23 254 1
1 254 23
3 252 39
5 250 50
7 248 59
9 246 67
11 244 73
13 242 79
15 240 85
17 238 90
19 236 95
21 234 99
23 232 103
25 230 107
27 228 111
29 226 114
31 224 118
33 222 121
35 220 124
37 218 127
39 216 130
41 214 132
43 212 135
45 210 137
47 208 140
49 206 142
51 204 144
53 202 146
55 200 148
57 198 150
59 196 152
61 194 154
63 192 156
65 190 157
67 188 159
69 186 160
71 184 162
73 182 163
75 180 164
77 178 166
79 176 167
81 174 168
83 172 169
85 170 170
87 168 171
89 166 172
91 164 173
93 162 174
95 160 174
97 158 175
99 156 176
101 154 176
103 152 177
105 150 177
107 148 178
109 146 178
111 144 179
113 142 179
115 140 179
117 138 180
119 136 180
121 134 180
123 132 180
125 130 180
127 128 180
129 126 180
131 124 180
133 122 180
135 120 180
137 118 180
139 116 180
141 114 179
143 112 179
145 110 179
147 108 178
149 106 178
151 104 177
153 102 177
155 100 176
157 98 175
159 96 175
161 94 174
163 92 173
165 90 172
167 88 171
169 86 170
171 84 169
173 82 168
175 80 167
177 78 166
179 76 165
181 74 164
183 72 162
185 70 161
187 68 159
189 66 158
191 64 156
193 62 155
195 60 153
197 58 151
199 56 149
201 54 147
203 52 145
205 50 143
207 48 141
209 46 139
211 44 136
213 42 134
215 40 131
217 38 128
219 36 126
221 34 123
223 32 119
225 30 116
227 28 113
229 26 109
231 24 105
233 22 101
235 20 97
237 18 92
239 16 87
241 14 82
243 12 76
245 10 70
247 8 63
249 6 55
251 4 45
253 2 32
255 0 0
