P3
1 256
255
0 0 0
1 0 0
3 0 0
5 0 0
7 0 0
9 0 0
11 0 0
13 0 0
15 0 0
17 0 0
19 0 0
21 0 0
23 0 0
25 0 0
27 0 0
29 0 0
31 0 0
33 0 0
35 0 0
37 0 0
39 0 0
41 0 0
43 0 0
45 0 0
47 0 0
49 0 0
51 0 0
53 0 0
55 0 0
57 0 0
59 0 0
61 0 0
63 0 0
66 0 0
67 0 0
70 0 0
71 0 0
74 0 0
75 0 0
78 0 0
79 0 0
82 0 0
83 0 0
86 0 0
87 0 0
90 0 0
91 0 0
94 0 0
95 0 0
98 0 0
99 0 0
102 0 0
103 0 0
106 0 0
107 0 0
110 0 0
111 0 0
114 0 0
115 0 0
118 0 0
119 0 0
122 0 0
123 0 0
126 0 0
127 0 0
129 2 0
132 4 0
134 6 0
135 8 0
137 10 0
140 12 0
142 14 0
143 16 0
145 18 0
148 20 0
150 22 0
151 24 0
153 26 0
156 28 0
158 30 0
159 32 0
161 34 0
164 36 0
166 38 0
167 40 0
169 42 0
172 44 0
174 46 0
175 48 0
177 50 0
180 52 0
182 54 0
183 56 0
185 58 0
188 60 0
190 62 0
191 64 0
193 66 0
196 68 0
198 70 0
199 72 0
201 74 0
204 76 0
206 78 0
207 80 0
209 82 0
212 84 0
214 86 0
215 88 0
217 90 0
220 92 0
222 94 0
223 96 0
225 98 0
228 100 0
230 102 0
231 104 0
233 106 0
236 108 0
238 110 0
239 112 0
241 114 0
244 116 0
246 118 0
247 120 0
249 122 0
252 124 0
254 126 0
255 128 0
255 130 2
255 132 4
255 134 6
255 136 9
255 138 11
255 140 13
255 142 15
255 144 16
255 146 18
255 148 20
255 150 22
255 152 25
255 154 27
255 156 29
255 158 31
255 160 32
255 162 34
255 164 36
255 166 38
255 168 41
255 170 43
255 172 45
255 174 47
255 176 48
255 178 50
255 180 52
255 182 54
255 184 57
255 186 59
255 188 61
255 190 63
255 192 64
255 194 66
255 196 68
255 198 70
255 200 73
255 202 75
255 204 77
255 206 79
255 208 80
255 210 82
255 212 84
255 214 86
255 216 89
255 218 91
255 220 93
255 222 95
255 224 96
255 226 98
255 228 100
255 230 102
255 232 105
255 234 107
255 236 109
255 238 111
255 240 112
255 242 114
255 244 116
255 246 118
255 248 121
255 250 123
255 252 125
255 254 127
255 255 128
255 255 130
255 255 132
255 255 134
255 255 137
255 255 139
255 255 141
255 255 143
255 255 144
255 255 146
255 255 148
255 255 150
255 255 153
255 255 155
255 255 157
255 255 159
255 255 160
255 255 162
255 255 164
255 255 166
255 255 169
255 255 171
255 255 173
255 255 175
255 255 176
255 255 178
255 255 180
255 255 182
255 255 185
255 255 187
255 255 189
255 255 191
255 255 192
255 255 194
255 255 196
255 255 198
255 255 201
255 255 203
255 255 205
255 255 207
255 255 208
255 255 210
255 255 212
255 255 214
255 255 217
255 255 219
255 255 221
255 255 223
255 255 224
255 255 226
255 255 228
255 255 230
255 255 233
255 255 235
255 255 237
255 255 239
255 255 240
255 255 242
255 255 244
255 255 246
255 255 249
255 255 251
255 255 253
255 255 255
