P3
1 256
255
0 0 0
2 0 0
5 0 0
8 0 0
11 0 0
14 0 0
17 0 0
20 0 0
23 0 0
26 0 0
29 0 0
32 0 0
35 0 0
38 0 0
41 0 0
44 0 0
47 0 0
50 0 0
53 0 0
56 0 0
59 0 0
62 0 0
65 0 0
68 0 0
71 0 0
74 0 0
77 0 0
80 0 0
83 0 0
86 0 0
89 0 0
92 0 0
95 0 0
99 0 0
101 0 0
105 0 0
107 0 0
111 0 0
113 0 0
117 0 0
119 0 0
123 0 0
125 0 0
129 0 0
131 0 0
135 0 0
137 0 0
141 0 0
143 0 0
147 0 0
149 0 0
153 0 0
155 0 0
159 0 0
161 0 0
165 0 0
167 0 0
171 0 0
173 0 0
177 0 0
179 0 0
183 0 0
185 0 0
189 0 0
191 0 0
194 0 0
198 0 0
201 0 0
203 0 0
206 0 0
210 0 0
213 0 0
215 0 0
218 0 0
222 0 0
225 0 0
227 0 0
230 0 0
234 0 0
237 0 0
239 0 0
242 0 0
246 0 0
249 0 0
251 0 0
254 0 0
255 3 0
255 6 0
255 8 0
255 11 0
255 15 0
255 18 0
255 20 0
255 23 0
255 27 0
255 30 0
255 32 0
255 35 0
255 39 0
255 42 0
255 44 0
255 47 0
255 51 0
255 54 0
255 56 0
255 59 0
255 63 0
255 66 0
255 68 0
255 71 0
255 75 0
255 78 0
255 80 0
255 83 0
255 87 0
255 90 0
255 92 0
255 95 0
255 99 0
255 102 0
255 104 0
255 107 0
255 111 0
255 114 0
255 116 0
255 119 0
255 123 0
255 126 0
255 128 0
255 131 0
255 134 0
255 137 0
255 141 0
255 144 0
255 147 0
255 150 0
255 152 0
255 155 0
255 158 0
255 161 0
255 165 0
255 168 0
255 171 0
255 174 0
255 176 0
255 179 0
255 182 0
255 185 0
255 189 0
255 192 0
255 195 0
255 198 0
255 200 0
255 203 0
255 206 0
255 209 0
255 213 0
255 216 0
255 219 0
255 222 0
255 224 0
255 227 0
255 230 0
255 233 0
255 237 0
255 240 0
255 243 0
255 246 0
255 248 0
255 251 0
255 254 0
255 255 2
255 255 6
255 255 9
255 255 12
255 255 15
255 255 17
255 255 20
255 255 23
255 255 26
255 255 30
255 255 33
255 255 36
255 255 39
255 255 41
255 255 44
255 255 47
255 255 50
255 255 54
255 255 57
255 255 60
255 255 63
255 255 65
255 255 68
255 255 71
255 255 74
255 255 78
255 255 81
255 255 84
255 255 87
255 255 89
255 255 92
255 255 95
255 255 98
255 255 102
255 255 105
255 255 108
255 255 111
255 255 113
255 255 116
255 255 119
255 255 122
255 255 126
255 255 129
255 255 132
255 255 135
255 255 137
255 255 140
255 255 143
255 255 146
255 255 150
255 255 153
255 255 156
255 255 159
255 255 161
255 255 164
255 255 167
255 255 170
255 255 174
255 255 177
255 255 180
255 255 183
255 255 185
255 255 188
255 255 191
255 255 194
255 255 198
255 255 201
255 255 204
255 255 207
255 255 209
255 255 212
255 255 215
255 255 218
255 255 222
255 255 225
255 255 228
255 255 231
255 255 233
255 255 236
255 255 239
255 255 242
255 255 246
255 255 249
255 255 252
255 255 255
