P3
1 256
255
0 0 0
1 1 1
2 2 2
4 2 2
5 3 3
6 4 4
7 5 5
8 5 5
10 6 6
11 7 7
12 8 8
13 9 9
14 9 9
16 10 10
17 11 11
18 12 12
19 13 13
20 13 13
22 14 14
23 15 15
24 16 16
25 16 16
26 17 17
28 18 18
29 19 19
30 20 20
31 20 20
32 21 21
34 22 22
35 23 23
36 24 24
37 24 24
38 25 25
40 26 26
41 27 27
42 27 27
43 28 28
44 29 29
46 30 30
47 31 31
48 31 31
49 32 32
50 33 33
51 34 34
53 34 34
54 35 35
55 36 36
56 37 37
57 38 38
59 38 38
60 39 39
61 40 40
62 41 41
63 42 42
65 42 42
66 43 43
67 44 44
68 45 45
69 45 45
71 46 46
72 47 47
73 48 48
74 49 49
75 49 49
77 50 50
78 51 51
79 52 52
80 53 53
81 53 53
83 54 54
84 55 55
85 56 56
86 56 56
87 57 57
89 58 58
90 59 59
91 60 60
92 60 60
93 61 61
95 62 62
96 63 63
97 64 64
98 64 64
99 65 65
101 66 66
102 67 67
103 67 67
104 68 68
105 69 69
107 70 70
108 71 71
109 71 71
110 72 72
111 73 73
113 74 74
114 74 74
115 75 75
116 76 76
117 77 77
119 78 78
120 78 78
121 79 79
122 80 80
123 81 81
125 82 82
126 82 82
127 83 83
128 84 84
129 85 85
131 85 85
132 86 86
133 87 87
134 88 88
135 89 89
137 89 89
138 90 90
139 91 91
140 92 92
141 93 93
143 93 93
144 94 94
145 95 95
146 96 96
147 96 96
148 97 97
150 98 98
151 99 99
152 100 100
153 100 100
154 101 101
156 102 102
157 103 103
158 103 103
159 104 104
160 105 105
162 106 106
163 107 107
164 107 107
165 108 108
166 109 109
168 110 110
169 111 111
170 111 111
171 112 112
172 113 113
174 114 114
175 114 114
176 115 115
177 116 116
178 117 117
180 118 118
181 118 118
182 119 119
183 120 120
184 121 121
186 122 122
187 122 122
188 123 123
189 124 124
190 125 125
192 125 125
193 126 126
194 127 127
195 129 128
195 130 129
196 132 129
197 134 130
197 135 131
198 137 132
199 139 132
199 141 133
200 142 134
201 144 135
201 146 136
202 147 136
203 149 137
203 151 138
204 152 139
204 154 140
205 156 140
206 157 141
206 159 142
207 161 143
208 162 143
208 164 144
209 166 145
210 168 146
210 169 147
211 171 147
212 173 148
212 174 149
213 176 150
214 178 151
214 179 151
215 181 152
216 183 153
216 184 154
217 186 154
218 188 155
218 189 156
219 191 157
220 193 158
220 195 158
221 196 159
222 198 160
222 200 161
223 201 161
224 203 162
224 205 163
225 206 164
225 208 165
226 210 165
227 211 166
227 213 167
228 215 168
229 216 169
229 218 169
230 220 170
231 222 171
231 223 172
232 225 172
233 227 173
233 228 176
234 230 178
235 232 180
235 233 183
236 236 185
237 237 188
237 237 190
238 238 192
239 239 195
239 239 197
240 240 200
241 241 202
241 241 204
242 242 207
243 243 209
243 243 212
244 244 214
245 245 217
245 245 219
246 246 221
246 246 224
247 247 226
248 248 229
248 248 231
249 249 233
250 250 236
250 250 238
251 251 241
252 252 243
252 252 245
253 253 248
254 254 250
254 254 253
255 255 255
