P3
1 256
255
0 127 0
0 126 0
0 124 1
0 123 2
0 121 3
0 120 4
0 118 5
0 117 6
0 115 7
0 114 8
0 112 9
0 111 10
0 109 11
0 108 12
0 106 13
0 105 14
0 103 15
0 102 16
0 100 17
0 99 18
0 97 19
0 96 20
0 94 21
0 93 22
0 91 23
0 90 24
0 88 25
0 87 26
0 85 27
0 84 28
0 82 29
0 81 30
0 79 31
0 77 33
0 76 33
0 74 35
0 73 35
0 71 37
0 70 37
0 68 39
0 67 39
0 65 41
0 64 41
0 62 43
0 61 43
0 59 45
0 58 45
0 56 47
0 55 47
0 53 49
0 52 49
0 50 51
0 49 51
0 47 53
0 46 53
0 44 55
0 43 55
0 41 57
0 40 57
0 38 59
0 37 59
0 35 61
0 34 61
0 32 63
0 31 63
0 30 64
0 28 66
0 26 67
0 25 67
0 24 68
0 22 70
0 20 71
0 19 71
0 18 72
0 16 74
0 14 75
0 13 75
0 12 76
0 10 78
0 8 79
0 7 79
0 6 80
0 4 82
0 2 83
0 1 83
0 0 84
0 1 86
0 3 87
0 4 87
0 5 88
0 7 90
0 9 91
0 10 91
0 11 92
0 13 94
0 15 95
0 16 95
0 17 96
0 19 98
0 21 99
0 22 99
0 23 100
0 25 102
0 27 103
0 28 103
0 29 104
0 31 106
0 33 107
0 34 107
0 35 108
0 37 110
0 39 111
0 40 111
0 41 112
0 43 114
0 45 115
0 46 115
0 47 116
0 49 118
0 51 119
0 52 119
0 53 120
0 55 122
0 57 123
0 58 123
0 59 124
0 61 126
0 63 127
0 64 127
0 65 128
0 67 129
0 68 130
0 70 132
0 72 133
0 73 134
0 75 135
0 76 135
0 77 136
0 79 137
0 80 138
0 82 140
0 84 141
0 85 142
0 87 143
0 88 143
0 89 144
0 91 145
0 92 146
0 94 148
0 96 149
0 97 150
0 99 151
0 100 151
0 101 152
0 103 153
0 104 154
0 106 156
0 108 157
0 109 158
0 111 159
0 112 159
0 113 160
0 115 161
0 116 162
0 118 164
0 120 165
0 121 166
0 123 167
0 124 167
0 125 168
0 127 169
2 128 170
6 130 172
9 132 173
12 133 174
15 135 175
17 136 175
20 137 176
23 139 177
26 140 178
30 142 180
33 144 181
36 145 182
39 147 183
41 148 183
44 149 184
47 151 185
50 152 186
54 154 188
57 156 189
60 157 190
63 159 191
65 160 191
68 161 192
71 163 193
74 164 194
78 166 196
81 168 197
84 169 198
87 171 199
89 172 199
92 173 200
95 175 201
98 176 202
102 178 204
105 180 205
108 181 206
111 183 207
113 184 207
116 185 208
119 187 209
122 188 210
126 190 212
129 192 213
132 193 214
135 195 215
137 196 215
140 197 216
143 199 217
146 200 218
150 202 220
153 204 221
156 205 222
159 207 223
161 208 223
164 209 224
167 211 225
170 212 226
174 214 228
177 216 229
180 217 230
183 219 231
185 220 231
188 221 232
191 223 233
194 224 234
198 226 236
201 228 237
204 229 238
207 231 239
209 232 239
212 233 240
215 235 241
218 236 242
222 238 244
225 240 245
228 241 246
231 243 247
233 244 247
236 245 248
239 247 249
242 248 250
246 250 252
249 252 253
252 253 254
255 255 255
