P3
1 256
255
     0     0     0
     0     0     0
     0     0     0
     0     0     0
     0     0     0
     0     0     0
     0     1     0
     0     1     0
     0     1     0
     1     1     0
     1     2     0
     2     2     0
     2     2     0
     3     2     0
     3     3     0
     4     3     0
     5     3     0
     6     4     0
     6     4     0
     7     4     0
     8     5     0
     9     5     0
    10     6     0
    11     6     0
    12     7     0
    13     7     0
    15     8     0
    16     8     0
    17     9     0
    18     9     0
    20    10     0
    21    11     0
    23    12     0
    24    12     0
    26    13     0
    28    14     0
    29    15     0
    31    15     0
    33    16     0
    35    17     0
    36    18     0
    38    18     0
    40    19     0
    42    20     0
    44    21     0
    46    21     0
    48    22     0
    50    23     0
    52    24     0
    54    24     0
    56    25     0
    58    26     0
    60    27     0
    63    27     0
    65    28     0
    67    29     0
    69    30     0
    72    30     0
    74    31     0
    76    32     0
    78    33     0
    81    33     0
    83    34     0
    86    35     0
    88    36     0
    90    36     0
    93    37     0
    96    38     0
    98    38     0
   101    39     0
   104    40     0
   107    41     0
   110    41     0
   113    42     0
   116    43     0
   119    44     0
   122    44     0
   126    45     0
   129    46     0
   132    47     0
   135    47     0
   138    48     0
   141    49     0
   144    50     0
   147    50     0
   150    51     0
   153    52     0
   156    53     0
   159    53     0
   162    54     0
   165    55     0
   168    56     0
   170    56     0
   173    57     0
   175    58     0
   177    59     0
   180    60     0
   182    60     0
   184    61     0
   186    62     0
   188    63     0
   189    63     0
   191    64     0
   193    65     0
   195    66     0
   197    66     0
   198    67     0
   200    68     0
   202    69     0
   203    70     0
   205    70     0
   206    71     0
   207    72     0
   209    73     0
   210    74     0
   211    74     0
   213    75     0
   214    76     0
   215    77     0
   216    77     0
   217    78     0
   218    79     0
   219    80     0
   220    81     0
   221    81     0
   222    82     0
   223    83     0
   224    84     0
   225    85     0
   225    85     0
   226    86     0
   227    87     0
   228    88     0
   228    88     0
   229    89     0
   230    90     0
   230    91     0
   231    91     0
   232    92     0
   233    93     0
   233    93     0
   234    94     0
   235    95     0
   235    96     0
   236    96     0
   237    97     0
   237    98     0
   238    99     0
   238    99     0
   239   100     0
   240   101     0
   240   102     0
   241   103     0
   241   103     0
   242   104     0
   242   105     0
   243   106     0
   243   107     0
   244   108     0
   244   109     0
   245   110     0
   245   110     0
   245   111     0
   246   112     0
   246   113     0
   247   114     0
   247   115     0
   247   116     0
   248   118     0
   248   119     0
   249   120     0
   249   121     0
   250   122     0
   250   123     0
   250   124     0
   251   125     0
   251   126     0
   251   128     0
   252   129     0
   252   130     0
   252   131     0
   253   132     0
   253   133     0
   253   134     0
   254   136     0
   254   137     0
   254   138     0
   254   139     0
   254   140     0
   254   141     0
   254   142     0
   254   143     0
   255   145     0
   255   146     0
   255   147     0
   255   148     1
   255   149     2
   255   150     3
   255   151     5
   255   152     7
   255   153     9
   255   154    11
   255   155    14
   255   157    16
   255   158    19
   255   159    22
   255   160    26
   255   161    29
   255   162    33
   255   163    36
   255   164    40
   255   165    44
   255   166    48
   255   167    52
   255   169    56
   255   170    60
   255   171    65
   255   172    69
   255   173    73
   255   174    78
   255   175    82
   255   176    87
   255   177    91
   255   178    95
   255   180   100
   255   181   104
   255   182   108
   255   183   112
   255   185   117
   255   186   121
   255   188   125
   255   190   130
   255   192   134
   255   194   139
   255   196   143
   255   198   148
   255   201   153
   255   203   157
   255   205   162
   255   208   167
   255   211   171
   255   213   176
   255   216   181
   255   219   186
   255   222   191
   255   224   196
   255   227   201
   255   230   206
   255   233   212
   255   236   217
   255   239   222
   255   242   228
   255   245   233
   255   248   239
   255   251   244
   255   255   250
