P3
1 256
255
255 255 255
254 254 254
254 254 254
254 254 254
254 254 254
254 254 254
254 254 254
254 254 254
253 253 253
253 253 253
253 253 253
252 252 252
252 252 252
251 251 251
251 251 251
250 250 250
250 250 250
249 249 249
248 248 248
248 248 248
247 247 247
246 246 246
245 245 245
244 244 244
243 243 243
243 243 243
242 242 242
241 241 241
239 239 239
238 238 238
237 237 237
236 236 236
235 235 235
234 234 234
232 232 232
231 231 231
230 230 230
228 228 228
227 227 227
226 226 226
224 224 224
223 223 223
221 221 221
220 220 220
218 218 218
216 216 216
215 215 215
213 213 213
211 211 211
209 209 209
208 208 208
206 206 206
204 204 204
202 202 202
200 200 200
198 198 198
196 196 196
194 194 194
192 192 192
190 190 190
188 188 188
186 186 186
184 184 184
181 181 181
179 179 179
177 177 177
175 175 175
172 172 172
170 170 170
168 168 168
165 165 165
163 163 163
161 161 161
158 158 158
156 156 156
153 153 153
151 151 151
148 148 148
146 146 146
143 143 143
140 140 140
138 138 138
135 135 135
132 132 132
130 130 130
127 127 127
124 124 124
122 122 122
119 119 119
116 116 116
113 113 113
110 110 110
108 108 108
105 105 105
102 102 102
99 99 99
96 96 96
93 93 93
90 90 90
87 87 87
84 84 84
81 81 81
78 78 78
75 75 75
72 72 72
69 69 69
66 66 66
63 63 63
60 60 60
57 57 57
54 54 54
51 51 51
48 48 48
45 45 45
42 42 42
39 39 39
36 36 36
32 32 32
29 29 29
26 26 26
23 23 23
20 20 20
17 17 17
14 14 14
10 10 10
7 7 7
4 4 4
1 1 1
1 1 1
4 4 4
7 7 7
10 10 10
14 14 14
17 17 17
20 20 20
23 23 23
26 26 26
29 29 29
32 32 32
36 36 36
39 39 39
42 42 42
45 45 45
48 48 48
51 51 51
54 54 54
57 57 57
60 60 60
63 63 63
66 66 66
69 69 69
72 72 72
75 75 75
78 78 78
81 81 81
84 84 84
87 87 87
90 90 90
93 93 93
96 96 96
99 99 99
102 102 102
105 105 105
108 108 108
110 110 110
113 113 113
116 116 116
119 119 119
122 122 122
124 124 124
127 127 127
130 130 130
132 132 132
135 135 135
138 138 138
140 140 140
143 143 143
146 146 146
148 148 148
151 151 151
153 153 153
156 156 156
158 158 158
161 161 161
163 163 163
165 165 165
168 168 168
170 170 170
172 172 172
175 175 175
177 177 177
179 179 179
181 181 181
184 184 184
186 186 186
188 188 188
190 190 190
192 192 192
194 194 194
196 196 196
198 198 198
200 200 200
202 202 202
204 204 204
206 206 206
208 208 208
209 209 209
211 211 211
213 213 213
215 215 215
216 216 216
218 218 218
220 220 220
221 221 221
223 223 223
224 224 224
226 226 226
227 227 227
228 228 228
230 230 230
231 231 231
232 232 232
234 234 234
235 235 235
236 236 236
237 237 237
238 238 238
239 239 239
241 241 241
242 242 242
243 243 243
243 243 243
244 244 244
245 245 245
246 246 246
247 247 247
248 248 248
248 248 248
249 249 249
250 250 250
250 250 250
251 251 251
251 251 251
252 252 252
252 252 252
253 253 253
253 253 253
253 253 253
254 254 254
254 254 254
254 254 254
254 254 254
254 254 254
254 254 254
254 254 254
255 255 255
