P3
1 256
255
0 127 0
0 126 0
1 125 0
2 124 0
3 123 0
4 122 0
5 121 0
6 120 0
7 119 0
8 118 0
9 117 0
10 116 0
11 115 0
12 114 0
13 113 0
14 112 0
15 111 0
16 110 0
17 109 0
18 108 0
19 107 0
20 106 0
21 105 0
22 104 0
23 103 0
24 102 0
25 101 0
26 100 0
27 99 0
28 98 0
29 97 0
30 96 0
31 95 0
33 94 0
33 93 0
35 92 0
35 91 0
37 90 0
37 89 0
39 88 0
39 87 0
41 86 0
41 85 0
43 84 0
43 83 0
45 82 0
45 81 0
47 80 0
47 79 0
49 78 0
49 77 0
51 76 0
51 75 0
53 74 0
53 73 0
55 72 0
55 71 0
57 70 0
57 69 0
59 68 0
59 67 0
61 66 0
61 65 0
63 64 0
63 63 1
64 62 1
66 61 1
67 60 1
67 59 1
68 58 1
70 57 1
71 56 1
71 55 1
72 54 1
74 53 1
75 52 1
75 51 2
76 50 2
78 49 2
79 48 2
79 47 2
80 46 2
82 45 2
83 44 2
83 43 3
84 42 3
86 41 3
87 40 3
87 39 3
88 38 3
90 37 3
91 36 4
91 35 4
92 34 4
94 33 4
95 32 4
95 31 5
96 30 5
98 29 5
99 28 5
99 27 6
100 26 6
102 25 6
103 24 6
103 23 7
104 22 7
106 21 7
107 20 7
107 19 8
108 18 8
110 17 8
111 16 9
111 15 9
112 14 9
114 13 10
115 12 10
115 11 10
116 10 11
118 9 11
119 8 12
119 7 12
120 6 12
122 5 13
123 4 13
123 3 14
124 2 14
126 1 15
127 0 15
127 0 16
128 1 16
129 2 17
130 3 17
132 4 18
133 5 18
134 6 19
135 7 20
135 8 20
136 9 21
137 10 21
138 11 22
140 12 23
141 13 23
142 14 24
143 15 25
143 16 25
144 17 26
145 18 27
146 19 28
148 20 28
149 21 29
150 22 30
151 23 31
151 24 32
152 25 33
153 26 33
154 27 34
156 28 35
157 29 36
158 30 37
159 31 38
159 32 39
160 33 40
161 34 41
162 35 42
164 36 43
165 37 44
166 38 45
167 39 46
167 40 48
168 41 49
169 42 50
170 43 51
172 44 52
173 45 54
174 46 55
175 47 56
175 48 57
176 49 59
177 50 60
178 51 61
180 52 63
181 53 64
182 54 66
183 55 67
183 56 69
184 57 70
185 58 72
186 59 73
188 60 75
189 61 76
190 62 78
191 63 80
191 64 81
192 65 83
193 66 85
194 67 87
196 68 89
197 69 90
198 70 92
199 71 94
199 72 96
200 73 98
201 74 100
202 75 102
204 76 104
205 77 106
206 78 108
207 79 110
207 80 112
208 81 115
209 82 117
210 83 119
212 84 121
213 85 124
214 86 126
215 87 128
215 88 131
216 89 133
217 90 136
218 91 138
220 92 141
221 93 143
222 94 146
223 95 149
223 96 151
224 97 154
225 98 157
226 99 160
228 100 162
229 101 165
230 102 168
231 103 171
231 104 174
232 105 177
233 106 180
234 107 183
236 108 187
237 109 190
238 110 193
239 111 196
239 112 200
240 113 203
241 114 206
242 115 210
244 116 213
245 117 217
246 118 220
247 119 224
247 120 228
248 121 231
249 122 235
250 123 239
252 124 243
253 125 247
254 126 251
255 127 255
