P3 1 256 255
0 0 1
8 0 1
16 0 1
24 0 1
32 0 1
41 0 1
49 0 1
57 0 1
65 0 1
74 0 1
82 0 1
90 0 1
98 0 1
106 0 1
115 0 1
123 0 1
131 0 1
139 0 1
148 0 1
156 0 1
164 0 1
172 0 1
180 0 1
189 0 1
197 0 1
205 0 1
213 0 1
222 0 1
230 0 1
238 0 1
246 0 1
255 0 1
27 3 1
34 7 1
41 11 1
49 15 1
56 18 1
63 22 1
71 26 1
78 30 1
85 33 1
93 37 1
100 41 1
107 45 1
115 48 1
122 52 1
129 56 1
137 60 1
144 63 1
152 67 1
159 71 1
166 75 1
174 78 1
181 82 1
188 86 1
196 90 1
203 93 1
210 97 1
218 101 1
225 105 1
232 108 1
240 112 1
247 116 1
255 120 1
27 27 1
34 34 1
41 41 1
49 49 1
56 56 1
63 63 1
71 71 1
78 78 1
85 85 1
93 93 1
100 100 1
107 107 1
115 115 1
122 122 1
129 129 1
137 137 1
144 144 1
152 152 1
159 159 1
166 166 1
174 174 1
181 181 1
188 188 1
196 196 1
203 203 1
210 210 1
218 218 1
225 225 1
232 232 1
240 240 1
247 247 1
255 255 1
0 27 1
0 34 1
0 41 1
0 49 1
0 56 1
0 63 1
0 71 1
0 78 1
0 85 1
0 93 1
0 100 1
0 107 1
0 115 1
0 122 1
0 129 1
0 137 1
0 144 1
0 152 1
0 159 1
0 166 1
0 174 1
0 181 1
0 188 1
0 196 1
0 203 1
0 210 1
0 218 1
0 225 1
0 232 1
0 240 1
0 247 1
0 255 1
0 27 27
0 34 34
0 41 41
0 49 48
0 56 56
0 63 63
0 71 70
0 78 78
0 85 85
0 93 92
0 100 100
0 107 107
0 115 114
0 122 122
0 129 129
0 137 136
0 144 144
0 152 151
0 159 158
0 166 166
0 174 173
0 181 180
0 188 188
0 196 195
0 203 202
0 210 210
0 218 217
0 225 225
0 232 232
0 240 240
0 247 247
0 255 255
0 13 27
0 16 34
0 20 41
0 24 48
0 27 56
0 31 63
0 35 70
0 38 78
0 42 85
0 46 92
0 50 100
0 53 107
0 57 114
0 61 122
0 64 129
0 68 136
0 72 144
0 76 151
0 79 158
0 83 166
0 87 173
0 90 180
0 94 188
0 98 195
0 102 203
0 105 210
0 109 217
0 113 225
0 116 232
0 120 240
0 124 247
0 128 255
7 0 27
15 0 34
23 0 41
31 0 48
39 0 56
47 0 63
55 0 70
63 0 78
71 0 85
79 0 92
87 0 100
95 0 107
103 0 115
111 0 122
119 0 129
127 0 137
135 0 144
143 0 151
151 0 159
159 0 166
167 0 173
175 0 181
183 0 188
191 0 196
199 0 203
207 0 210
215 0 218
223 0 225
231 0 232
239 0 240
247 0 247
255 0 255
27 7 27
34 15 34
41 23 41
49 31 48
56 39 56
63 47 63
71 55 71
78 63 78
85 71 85
93 79 93
100 87 100
107 95 107
115 103 115
122 111 122
129 119 129
137 127 137
144 135 144
152 143 151
159 151 159
166 159 166
174 167 174
181 175 181
188 183 188
196 191 196
203 199 203
210 207 210
218 215 218
225 223 225
232 231 232
240 239 240
247 247 247
254 255 255
