P3 1 256 255
0 0 0
0 0 4
0 0 8
0 0 12
0 0 16
0 0 20
0 0 24
0 0 28
0 0 32
0 0 36
0 0 40
0 0 44
0 0 48
0 0 52
0 0 56
0 0 60
0 0 64
0 0 68
0 0 72
0 0 76
0 0 80
0 0 84
0 0 88
0 0 92
0 0 96
0 0 100
0 0 104
0 0 108
0 0 112
0 0 116
0 0 120
0 0 124
0 0 128
0 0 132
0 0 136
0 0 140
0 0 144
0 0 148
0 0 152
0 0 156
0 0 160
0 0 164
0 0 168
0 0 172
0 0 176
0 0 180
0 0 184
0 0 188
0 0 192
0 0 196
0 0 200
0 0 204
1 1 204
2 2 205
3 3 206
4 4 207
5 5 208
6 6 209
7 7 210
8 8 211
9 9 212
10 10 213
11 11 214
12 12 215
13 13 216
14 14 216
15 15 217
16 16 218
17 17 219
18 18 220
19 19 221
20 20 222
21 21 223
22 22 224
23 23 225
24 24 226
25 25 227
26 26 228
28 28 226
30 30 224
32 32 222
34 34 220
36 36 218
38 38 216
40 40 214
42 42 212
44 44 210
46 46 208
48 48 206
50 50 204
52 52 202
54 54 200
56 56 198
58 58 196
60 60 194
62 62 192
64 64 190
66 66 188
68 68 186
70 70 184
72 72 182
74 74 180
76 76 178
78 78 176
80 80 174
82 82 172
84 84 170
86 86 168
88 88 166
90 90 164
92 92 162
94 94 160
96 96 158
98 98 156
100 100 154
102 102 152
104 104 150
106 106 148
108 108 146
110 110 144
112 112 142
114 114 140
116 116 138
118 118 136
120 120 134
122 122 132
124 124 130
126 126 128
128 128 126
130 130 124
132 132 122
134 134 120
136 136 118
138 138 116
140 140 114
142 142 112
144 144 110
146 146 108
148 148 106
150 150 104
152 152 102
154 154 100
156 156 98
158 158 96
160 160 94
162 162 92
164 164 90
166 166 88
168 168 86
170 170 84
172 172 82
174 174 80
176 176 78
178 178 76
180 180 74
182 182 72
184 184 70
186 186 68
188 188 66
190 190 64
192 192 62
194 194 60
196 196 58
198 198 56
200 200 54
202 202 52
204 204 50
206 206 48
208 208 46
210 210 44
212 212 42
214 214 40
216 216 38
218 218 36
220 220 34
222 222 32
224 224 30
226 226 28
228 228 26
230 230 24
231 231 25
232 232 26
233 233 27
234 234 28
235 235 29
236 236 30
237 237 31
238 238 32
239 239 34
240 240 35
241 241 36
242 242 37
243 243 38
244 244 39
245 245 40
246 246 41
247 247 43
248 248 44
249 249 45
250 250 46
251 251 47
252 252 48
253 253 49
254 254 50
255 255 52
255 255 56
255 255 60
255 255 64
255 255 68
255 255 72
255 255 76
255 255 80
255 255 84
255 255 88
255 255 92
255 255 96
255 255 100
255 255 104
255 255 108
255 255 112
255 255 116
255 255 120
255 255 124
255 255 128
255 255 132
255 255 136
255 255 140
255 255 144
255 255 148
255 255 152
255 255 156
255 255 159
255 255 163
255 255 167
255 255 171
255 255 175
255 255 179
255 255 183
255 255 187
255 255 191
255 255 195
255 255 199
255 255 203
255 255 207
255 255 211
255 255 215
255 255 219
255 255 223
255 255 227
255 255 231
255 255 235
255 255 239
255 255 243
255 255 247
255 255 251
255 255 254
