P3 1 256 255
0 0 0
0 0 1
1 1 2
2 2 3
3 3 4
4 4 5
5 5 7
5 5 8
6 6 9
7 7 10
8 8 11
9 9 13
10 10 14
10 10 15
11 11 16
12 12 17
13 13 19
14 14 20
15 15 21
16 16 22
16 16 23
17 17 25
18 18 26
19 19 27
20 20 28
21 21 29
22 22 31
22 22 32
23 23 33
24 24 34
25 25 35
26 26 36
27 27 38
28 28 39
29 29 40
29 29 41
30 30 42
31 31 44
32 32 45
33 33 46
34 34 47
35 35 48
36 36 50
36 36 51
37 37 52
38 38 53
39 39 54
40 40 56
41 41 57
42 42 58
43 43 59
44 44 61
44 44 62
45 45 63
46 46 64
47 47 65
48 48 67
49 49 68
50 50 69
51 51 70
51 51 72
52 52 73
53 53 74
54 54 75
55 55 77
56 56 78
57 57 79
58 58 80
59 59 81
59 59 83
60 60 84
61 61 85
62 62 86
63 63 88
64 64 89
65 65 90
66 66 91
67 67 93
67 67 94
68 68 95
69 69 96
70 70 97
71 71 98
72 72 99
73 73 100
74 74 101
74 75 103
75 76 104
76 77 105
77 78 106
78 79 107
79 80 108
80 81 109
81 82 110
81 83 112
82 84 113
83 85 114
84 86 115
85 87 116
86 88 117
87 89 118
88 90 119
89 91 121
89 92 121
90 93 122
91 94 123
92 95 124
93 96 125
94 98 126
95 99 126
96 100 127
96 101 128
97 102 129
98 104 130
99 105 131
100 106 131
101 107 132
102 108 133
103 110 134
104 111 135
104 112 136
105 113 137
106 114 137
107 116 138
108 117 139
109 118 140
110 119 141
111 120 142
112 122 143
112 123 143
113 124 144
114 125 145
115 126 146
116 128 147
117 129 148
117 130 149
118 131 150
119 133 150
120 134 151
121 135 152
122 136 153
122 138 154
123 139 155
124 140 156
125 141 157
126 143 157
127 144 158
127 145 159
128 146 160
129 148 161
130 149 162
131 150 163
132 151 164
133 153 165
133 154 165
134 155 166
135 156 167
136 157 168
137 158 169
138 160 170
139 161 171
140 162 172
140 163 172
141 164 173
142 166 174
143 167 175
144 168 176
145 169 177
146 170 178
147 172 179
148 173 180
148 174 180
149 175 181
150 176 182
151 178 183
152 179 184
153 180 185
154 181 186
155 182 187
156 184 188
157 185 188
158 186 189
159 187 190
160 188 191
161 189 192
162 190 193
163 191 194
164 192 195
166 193 195
167 194 196
168 195 197
169 196 198
170 197 199
171 198 200
172 199 201
173 200 202
175 201 202
176 202 203
177 203 204
178 204 205
179 205 206
180 206 207
181 207 208
182 208 209
184 210 210
185 210 210
186 211 211
188 212 212
189 213 213
190 214 214
192 215 215
193 216 216
195 217 217
196 217 217
197 218 218
199 219 219
200 220 220
201 221 221
203 222 222
204 223 223
206 224 224
207 225 225
208 225 225
210 226 226
211 227 227
213 228 228
214 229 229
215 230 230
217 231 231
218 232 232
220 233 233
221 233 233
222 234 234
224 235 235
225 236 236
226 237 237
228 238 238
229 239 239
231 240 240
232 240 240
233 241 241
235 242 242
236 243 243
238 244 244
239 245 245
240 246 246
242 247 247
243 247 247
245 248 248
246 249 249
247 250 250
249 251 251
250 252 252
252 253 253
253 254 254
254 255 255
