P3 1 256 255
73 193 3
70 194 11
68 195 19
66 196 27
64 197 35
62 198 43
60 199 51
58 200 59
56 201 67
54 203 75
52 204 83
50 205 91
48 206 99
45 207 107
43 208 115
41 209 123
39 210 131
37 211 139
35 213 147
33 214 155
31 215 163
29 216 171
27 217 179
25 218 187
23 219 195
21 220 203
19 222 212
18 222 219
17 222 226
16 222 233
15 222 240
15 222 247
14 222 255
13 216 255
12 211 255
12 206 255
11 200 255
10 195 255
9 190 255
9 184 255
8 179 255
7 174 255
6 168 255
6 163 255
5 158 255
4 152 255
3 147 255
3 142 255
2 136 255
1 131 255
0 126 255
0 121 255
0 117 255
1 113 255
1 110 255
2 106 255
2 102 255
3 99 255
3 95 255
4 92 255
4 88 255
5 84 255
5 81 255
6 77 255
6 73 255
7 70 255
7 66 255
8 63 255
8 59 255
9 55 255
9 52 255
10 48 255
10 45 255
11 41 255
11 37 255
12 34 255
12 30 255
13 27 255
13 25 253
13 24 252
14 23 250
14 22 249
15 21 248
15 20 246
16 19 245
16 18 244
17 17 242
17 16 241
18 15 240
18 14 238
19 12 237
19 11 235
20 10 234
20 9 233
21 8 231
21 7 230
22 6 229
22 5 227
23 4 226
23 3 225
24 2 223
24 1 222
25 0 221
27 0 218
30 0 216
32 0 214
35 0 212
37 0 210
40 0 208
42 0 205
45 0 203
47 0 201
50 0 199
52 0 197
55 0 195
57 0 193
60 0 190
62 0 188
65 0 186
67 0 184
70 0 182
72 0 180
75 0 177
77 0 175
80 0 173
82 0 171
85 0 169
87 0 167
90 0 165
94 0 162
98 0 159
102 0 156
107 0 153
111 0 150
115 0 147
119 0 144
124 0 141
128 0 138
132 0 135
137 0 132
141 0 129
145 0 126
149 0 123
154 0 120
158 0 117
162 0 114
167 0 111
171 0 108
175 0 105
179 0 102
184 0 99
188 0 96
192 0 93
197 0 90
199 1 86
201 3 83
203 5 79
205 6 76
208 8 72
210 10 69
212 12 65
214 13 62
217 15 58
219 17 55
221 19 51
223 20 48
226 22 44
228 24 41
230 25 38
232 27 34
234 29 31
237 31 27
239 32 24
241 34 20
243 36 17
246 38 13
248 39 10
250 41 6
252 43 3
255 45 0
255 49 0
255 53 0
255 57 0
255 61 0
255 65 0
255 69 0
255 74 0
255 78 0
255 82 0
255 86 0
255 90 0
255 94 0
255 99 0
255 103 0
255 107 0
255 111 0
255 115 0
255 119 0
255 124 0
255 128 0
255 132 0
255 136 0
255 140 0
255 144 0
255 149 0
255 153 0
255 158 0
255 162 0
255 167 0
255 171 0
255 176 1
255 180 1
255 185 1
255 189 1
255 194 1
255 198 2
255 203 2
255 207 2
255 212 2
255 216 2
255 221 3
255 225 3
255 230 3
255 234 3
255 239 3
250 238 4
245 237 4
240 236 4
235 235 4
230 234 4
226 233 5
219 231 4
213 229 4
207 228 4
201 226 4
195 224 4
189 223 4
183 221 4
177 220 4
170 218 4
164 216 4
158 215 4
152 213 4
146 212 3
140 210 3
134 208 3
128 207 3
121 205 3
115 204 3
109 202 3
103 200 3
97 199 3
91 197 3
85 196 3
79 194 3
72 192 2
