P3 1 256 255
175 85 1
175 85 1
176 85 1
177 85 1
177 85 1
178 85 1
179 85 1
179 85 1
180 85 1
181 85 1
181 85 1
182 85 1
183 85 1
184 85 1
184 85 1
185 85 1
186 85 1
186 85 1
187 85 1
188 85 1
188 85 1
189 85 1
190 85 1
190 85 1
191 85 1
192 85 1
193 85 1
193 85 1
194 85 1
195 85 1
195 85 1
196 85 1
197 85 1
197 85 1
198 85 1
199 85 1
200 85 1
200 85 1
201 85 1
202 85 1
202 85 1
203 86 1
204 87 1
204 88 1
205 89 1
206 90 1
207 91 1
207 93 1
207 94 1
207 95 1
207 96 1
207 97 1
207 98 1
207 99 1
207 101 1
207 102 1
207 103 1
209 104 1
212 105 1
215 106 1
218 107 1
221 109 1
224 110 1
224 111 1
224 112 1
224 113 1
224 114 1
224 115 1
224 117 1
224 118 1
224 119 1
224 120 2
224 121 3
224 122 4
224 124 4
224 125 5
224 126 6
224 127 7
224 128 7
224 129 8
224 130 9
224 132 10
224 133 10
224 134 11
224 135 12
224 136 13
224 137 14
224 138 14
224 140 15
224 141 16
224 142 17
224 143 17
224 144 18
224 145 19
224 147 20
224 147 20
224 147 21
224 147 22
224 147 23
224 147 23
224 147 24
224 147 25
224 147 26
224 147 27
224 147 27
224 147 28
224 147 29
224 147 30
224 147 30
224 147 31
224 147 32
224 148 33
224 150 33
224 151 34
224 153 35
224 155 36
224 156 37
224 158 37
224 160 38
224 161 39
224 163 40
224 165 40
224 166 41
224 168 42
224 169 43
224 171 43
224 173 44
224 174 45
224 176 46
224 178 46
224 179 47
224 181 48
224 183 49
224 184 50
224 186 50
224 187 51
224 189 52
224 191 53
224 192 53
224 194 54
224 196 55
224 197 56
224 199 56
224 201 57
225 202 58
226 204 59
226 206 60
227 206 60
228 206 61
228 206 62
229 206 63
230 206 63
230 206 64
231 206 65
232 207 66
232 207 66
233 207 67
234 207 68
234 207 69
235 207 69
236 207 70
236 207 71
237 208 72
238 211 73
238 214 73
239 217 74
240 220 75
241 223 76
241 226 76
241 229 77
241 232 78
241 235 79
241 238 79
241 241 80
241 241 81
241 241 82
241 241 83
241 241 85
241 241 88
241 241 91
241 241 93
241 241 96
241 241 99
241 241 102
241 241 104
241 241 107
241 241 110
241 241 113
241 241 115
241 241 118
241 241 121
241 241 124
241 241 126
241 241 129
241 241 132
241 241 135
241 241 137
241 241 140
241 241 143
241 241 146
241 241 148
241 241 151
241 241 154
241 241 157
241 241 159
241 241 162
241 241 165
241 241 168
241 241 170
241 241 173
241 241 176
241 241 179
241 241 181
241 241 184
241 241 187
241 241 190
241 241 192
241 241 195
241 241 198
241 241 201
241 241 202
241 241 203
241 241 204
241 241 205
241 241 206
241 241 207
241 241 208
241 241 209
241 241 211
241 241 212
241 241 213
241 241 214
241 241 215
241 241 216
241 241 217
241 241 218
241 241 219
241 241 221
241 241 222
241 241 223
241 241 224
241 241 225
241 241 226
241 241 227
241 241 228
241 241 229
241 241 231
241 241 232
241 241 233
241 241 234
241 241 235
241 241 236
241 241 237
241 241 238
241 241 239
241 241 241
