P3 1 256 255
252 4 2
251 4 2
250 4 2
249 5 2
248 5 2
247 6 2
246 6 2
245 7 2
244 7 2
243 8 2
242 8 2
241 8 2
240 9 2
239 9 2
238 10 2
237 10 2
236 11 2
235 11 2
234 12 2
233 12 2
232 13 2
231 13 2
230 13 2
229 14 2
228 14 2
227 15 2
226 15 2
225 16 2
224 16 2
223 17 2
222 17 2
221 18 2
220 18 2
219 18 2
218 19 2
217 19 2
216 20 2
215 20 2
214 21 2
213 21 2
212 22 2
211 22 2
210 23 2
209 23 2
208 23 2
207 24 2
206 24 2
205 25 2
204 25 2
203 26 2
202 26 2
201 27 2
200 27 2
199 28 2
198 28 2
197 28 2
196 29 2
195 29 2
194 30 2
193 30 2
192 31 2
191 31 2
190 32 2
189 32 2
188 33 2
187 33 2
186 34 2
185 35 2
184 36 2
183 38 2
182 39 2
181 41 2
180 42 2
179 44 2
178 45 2
177 47 2
176 48 2
175 50 2
174 51 2
173 53 2
172 54 2
171 56 2
170 57 2
169 59 2
168 60 2
167 62 2
167 63 2
166 65 2
165 66 3
164 68 4
163 69 5
162 71 6
161 72 7
160 74 8
159 75 9
158 77 10
157 78 11
156 80 12
155 81 13
154 83 14
153 84 15
152 86 16
151 87 17
150 89 19
149 90 20
148 92 21
147 93 22
146 95 23
145 96 24
144 98 25
143 99 26
142 101 27
141 102 28
140 104 29
139 105 30
138 107 31
137 108 32
136 110 34
135 111 35
134 113 36
133 114 37
132 116 38
131 117 39
130 119 40
129 120 41
128 122 42
127 123 43
126 124 44
125 126 45
124 127 46
123 129 47
122 130 49
121 132 50
120 133 51
119 135 52
118 136 53
117 138 54
116 139 55
115 141 56
114 142 57
113 144 58
112 145 59
111 147 60
110 148 61
109 150 62
108 151 64
107 153 65
106 154 66
105 156 67
104 157 68
103 159 69
102 160 70
101 162 71
100 163 72
99 165 73
98 166 74
97 168 75
96 169 76
95 171 77
94 172 79
93 174 80
92 175 81
91 177 82
90 178 83
89 180 84
88 181 85
87 183 86
86 184 87
85 186 88
84 187 89
83 189 90
83 190 91
82 192 93
81 193 95
80 195 97
79 196 99
78 198 102
77 199 104
76 201 106
75 202 109
74 204 111
73 205 113
72 207 115
71 208 118
70 210 120
69 210 122
68 211 125
67 212 127
66 213 129
65 214 131
64 215 134
63 216 136
62 217 138
61 218 141
60 219 143
59 220 145
58 220 147
57 221 150
56 222 152
55 223 154
54 224 157
53 225 159
52 226 161
51 227 164
50 228 166
49 229 168
48 230 170
47 231 173
46 231 175
45 232 177
44 233 180
43 234 182
42 235 184
41 236 186
40 237 189
39 238 191
38 239 193
37 240 196
36 241 198
35 242 200
34 243 203
33 243 204
32 243 205
31 243 207
30 244 208
29 244 209
28 244 211
27 244 212
26 245 214
25 245 215
24 245 216
23 245 218
22 246 219
21 246 221
20 246 222
19 246 223
18 247 225
17 247 226
16 247 228
15 247 229
14 248 230
13 248 232
12 248 233
11 248 235
10 249 236
9 249 237
8 249 239
7 249 240
6 250 242
5 250 243
4 250 244
3 250 246
2 251 247
1 251 249
0 251 250
0 251 251
