P3 1 256 255
0 0 0
1 0 0
2 1 0
3 2 1
4 3 1
6 3 2
7 4 2
8 5 3
9 6 3
11 6 4
12 7 4
13 8 5
14 9 5
16 10 6
17 10 6
18 11 6
19 12 7
20 13 7
22 13 8
23 14 8
24 15 9
25 16 9
27 16 10
28 17 10
29 18 11
30 19 11
32 20 12
33 20 12
34 21 13
35 22 13
36 23 14
38 23 14
39 24 15
40 25 15
41 26 16
43 26 16
44 27 17
45 28 17
46 29 18
48 29 18
49 30 19
50 31 19
51 32 20
53 32 20
54 33 21
55 34 21
56 35 22
58 35 22
59 36 23
60 37 23
61 38 24
63 39 25
64 39 25
65 40 26
66 41 26
68 42 27
69 43 27
70 43 28
71 44 28
73 45 29
74 46 29
75 47 30
76 47 30
78 48 31
79 49 31
80 50 32
82 51 32
83 51 33
84 52 33
85 53 34
87 54 34
88 55 35
89 55 35
90 56 36
92 57 36
93 58 37
94 59 37
96 60 38
97 60 38
98 61 38
99 62 39
100 63 39
102 63 40
103 64 40
104 65 41
105 66 41
107 66 42
108 67 42
109 68 43
110 69 43
112 69 44
113 70 44
114 71 45
115 72 45
117 72 46
118 73 46
119 74 47
120 75 47
122 75 48
123 76 48
124 77 49
125 78 49
127 79 50
128 79 50
129 80 51
130 81 51
131 82 52
133 82 52
134 83 53
135 84 53
136 85 54
138 85 54
139 86 55
140 87 55
141 88 56
143 89 56
144 89 57
145 90 57
146 91 58
147 92 58
149 92 59
150 93 59
151 94 60
152 95 60
154 95 61
155 96 61
156 97 62
157 98 62
159 99 63
160 99 63
161 100 64
162 101 64
164 102 65
165 103 65
166 103 66
167 104 66
169 105 67
170 106 67
171 107 68
173 107 68
174 108 69
175 109 69
176 110 70
178 111 70
179 111 71
180 112 71
182 113 72
183 114 72
184 115 73
185 115 73
187 116 74
188 117 74
189 118 75
191 119 76
192 119 76
193 120 77
194 121 77
195 122 78
197 122 78
198 123 79
199 124 79
200 125 80
202 125 80
203 126 81
204 127 81
205 128 82
207 129 82
208 129 83
209 130 83
210 131 84
211 132 84
213 132 85
214 133 85
215 134 86
216 135 86
218 135 87
219 136 87
220 137 88
221 138 88
223 139 89
224 139 89
225 140 89
226 141 90
228 142 90
229 143 91
230 143 91
231 144 92
233 145 92
234 146 93
235 147 93
237 147 94
238 148 94
239 149 95
240 150 95
242 151 96
243 151 96
244 152 97
246 153 97
247 154 98
248 155 98
249 155 99
251 156 99
252 157 100
253 158 100
255 159 101
255 159 101
255 160 102
255 161 102
255 162 103
255 162 103
255 163 104
255 164 104
255 165 105
255 165 105
255 166 106
255 167 106
255 168 107
255 169 107
255 169 108
255 170 108
255 171 109
255 172 109
255 172 110
255 173 110
255 174 111
255 175 111
255 175 112
255 176 112
255 177 113
255 178 113
255 179 114
255 179 114
255 180 114
255 181 115
255 182 115
255 183 116
255 183 116
255 184 117
255 185 117
255 186 118
255 187 118
255 187 119
255 188 119
255 189 120
255 190 120
255 191 121
255 191 121
255 192 122
255 193 122
255 194 123
255 195 123
255 195 124
255 196 124
255 197 125
255 198 125
255 199 125
