P3 1 256 255
0 0 0
2 0 0
5 0 0
8 0 0
11 0 0
13 0 0
16 0 0
19 0 0
22 0 0
24 0 0
27 0 0
30 0 0
33 0 0
35 0 0
38 0 0
41 0 0
44 0 0
47 0 0
49 0 0
52 0 0
55 0 0
58 0 0
60 0 0
63 0 0
66 1 0
69 1 0
72 2 0
72 3 0
73 3 0
74 4 0
75 5 0
76 5 0
77 6 0
78 7 0
78 8 0
79 8 0
80 9 0
81 10 0
82 10 0
83 11 0
84 12 0
85 13 0
85 13 0
86 14 0
87 15 0
88 15 0
89 16 0
90 17 0
91 17 0
91 18 0
92 19 0
93 20 0
94 20 0
95 21 0
96 22 0
97 22 0
98 23 0
98 24 0
98 25 0
98 25 0
98 26 0
99 27 0
99 27 0
99 28 0
99 29 0
100 30 0
100 32 0
100 34 0
100 37 0
101 39 0
101 41 0
101 44 0
101 46 0
102 48 0
102 51 0
102 53 0
102 55 0
102 58 1
103 60 2
103 62 3
103 65 4
103 67 6
104 69 7
104 72 8
104 73 9
104 74 11
105 76 12
105 77 13
105 78 14
105 80 15
106 81 17
106 83 18
106 84 19
106 85 20
107 87 22
107 88 23
108 90 24
109 91 25
110 92 26
111 94 28
112 95 29
113 97 30
114 98 31
115 99 33
116 101 34
117 102 35
118 104 36
119 105 37
119 107 39
120 107 40
121 107 41
122 107 42
123 107 44
124 107 45
125 107 46
126 107 47
127 107 48
128 107 50
129 107 51
130 107 52
131 107 53
132 107 55
132 107 58
133 107 62
134 107 66
135 107 69
136 107 73
137 107 77
138 108 81
139 102 84
140 96 88
141 91 92
142 85 95
143 80 99
144 74 103
144 69 107
145 68 110
146 67 114
147 66 118
148 65 121
149 64 125
150 63 129
151 62 133
152 61 136
153 60 140
154 59 144
155 58 147
156 49 151
157 40 155
157 31 159
158 22 162
159 14 166
160 7 170
161 0 174
162 0 174
163 0 174
164 1 174
165 1 175
166 2 175
167 2 175
168 3 176
169 3 176
170 4 176
170 4 176
171 5 177
172 5 177
173 6 177
174 6 178
175 7 178
176 7 178
177 8 179
178 8 179
179 8 179
180 9 179
181 9 180
182 10 180
182 10 180
183 11 181
184 11 181
185 12 181
186 12 182
187 13 184
188 13 186
189 14 188
190 14 191
191 15 193
192 15 195
193 16 197
194 16 200
195 17 202
195 15 204
196 14 207
197 13 207
198 11 208
199 10 208
200 9 209
201 8 209
202 6 210
203 5 210
204 4 211
205 3 212
206 2 212
207 2 213
208 2 213
208 2 214
208 2 214
209 2 215
209 2 216
210 2 216
210 2 217
210 1 217
211 1 218
211 1 218
212 1 219
212 1 219
213 1 220
213 1 221
213 1 221
214 1 222
214 1 222
215 0 223
215 0 223
216 0 224
216 0 225
216 0 225
217 0 226
217 0 226
218 0 227
218 0 227
218 0 228
219 0 229
219 0 229
220 0 229
220 0 229
221 0 229
221 0 229
221 0 229
222 0 229
222 0 229
223 0 229
223 0 229
224 0 229
224 0 229
224 0 230
225 0 230
225 0 230
226 0 230
226 0 230
227 0 230
227 0 230
227 0 230
228 0 230
228 0 230
229 0 230
229 0 230
229 0 231
