P3 1 256 255
76 1 1
76 1 1
77 1 1
77 1 1
78 1 1
78 1 1
79 1 1
79 1 1
80 1 1
80 1 1
81 1 1
81 1 1
82 1 1
82 1 1
83 1 1
83 1 1
84 1 1
84 1 1
85 1 1
85 1 1
86 1 1
86 1 1
87 1 1
87 1 1
88 1 1
89 1 1
89 1 1
90 1 1
90 1 1
91 1 1
91 1 1
92 1 1
92 1 1
93 1 1
93 1 1
94 1 1
94 1 1
95 1 1
95 1 1
96 1 1
96 1 1
97 1 1
97 1 1
98 1 1
98 1 1
99 1 1
99 1 1
100 1 1
101 1 1
101 1 1
102 1 1
102 1 1
103 1 1
103 1 1
104 1 1
104 1 1
105 1 1
105 1 1
106 1 1
106 1 1
107 1 1
107 1 1
108 1 1
108 1 1
109 1 1
109 1 1
110 1 1
110 1 1
111 1 1
111 1 1
112 1 1
113 1 1
113 1 1
114 1 1
114 1 1
115 1 1
115 1 1
116 1 1
116 1 1
117 1 1
117 1 1
118 1 1
118 1 1
119 1 1
119 1 1
120 2 1
120 4 1
121 6 1
121 8 1
122 9 1
122 11 1
123 13 1
123 15 1
124 17 1
125 18 1
125 20 1
126 22 1
126 24 1
127 25 1
127 27 1
128 29 1
128 31 1
129 33 1
129 34 1
130 36 1
130 38 1
131 40 1
131 41 1
132 43 1
132 45 1
133 47 1
133 49 1
134 50 1
134 52 1
135 54 1
135 56 1
136 57 1
137 59 1
137 61 1
138 63 1
138 65 1
139 66 1
139 68 1
140 70 1
140 72 1
141 73 1
141 75 1
142 77 1
142 79 1
143 81 1
143 82 1
144 84 1
144 86 1
145 88 1
145 89 1
146 91 1
146 93 1
147 95 1
147 97 1
148 98 1
149 100 1
149 102 1
150 104 1
150 105 1
151 107 1
151 109 1
152 111 1
152 113 1
153 114 1
153 116 1
154 118 1
154 120 1
155 121 1
155 123 1
156 125 1
156 127 1
157 129 1
157 130 1
158 132 1
158 134 1
159 136 1
159 137 1
160 139 1
161 141 1
161 143 1
162 145 1
162 146 1
163 148 1
163 150 1
164 152 1
164 153 1
165 155 1
165 157 1
166 159 1
166 161 1
167 162 1
167 164 1
168 166 1
168 168 1
169 170 1
169 170 1
170 170 1
170 170 1
171 170 1
171 170 1
172 170 1
173 170 1
173 170 2
174 170 4
174 170 6
175 170 7
175 170 9
176 170 11
176 170 12
177 170 14
177 170 16
178 170 17
178 170 19
179 170 21
179 170 22
180 170 24
180 170 26
181 170 27
181 170 29
182 170 31
182 171 32
183 171 34
183 171 36
184 171 37
185 171 39
185 171 41
186 171 42
186 171 44
187 171 46
187 171 47
188 171 49
188 171 51
189 171 52
189 171 54
190 171 56
190 171 57
191 171 59
191 171 61
192 171 62
192 171 64
193 171 66
193 171 67
194 171 69
194 171 71
195 171 72
195 172 74
196 172 76
197 172 77
197 172 79
198 172 81
198 172 82
199 172 84
199 172 86
200 172 87
200 172 89
201 172 91
201 172 92
202 172 94
202 172 96
203 172 97
203 172 99
204 172 101
204 172 102
205 172 104
205 172 106
206 172 107
206 172 109
207 172 111
207 172 112
208 172 114
209 172 116
