P3 1 256 255
3 3 1
4 3 1
6 4 1
8 5 1
9 5 1
11 6 1
13 7 1
14 7 1
16 8 1
18 9 1
19 9 1
21 10 1
23 11 1
24 12 1
26 12 1
28 13 1
29 14 1
31 14 1
33 15 1
34 16 1
36 16 1
38 17 1
39 18 1
41 19 1
43 19 1
44 20 1
46 21 1
48 21 1
49 22 1
51 23 1
53 23 1
54 24 1
56 25 1
58 25 1
59 26 1
61 27 1
63 28 1
64 28 1
66 29 1
68 30 1
69 30 1
71 31 1
73 32 1
74 32 1
76 33 1
78 34 1
79 35 1
81 35 1
83 36 1
84 37 1
86 37 1
88 38 1
90 39 1
91 39 1
93 40 1
95 41 1
96 41 1
98 42 1
100 43 1
101 44 1
103 44 1
105 45 1
106 46 1
108 46 1
110 47 1
111 48 1
113 48 1
115 49 1
116 50 1
118 51 1
120 51 1
121 52 1
123 53 1
125 53 1
126 54 1
128 55 1
130 55 1
131 56 1
133 57 1
135 58 1
136 59 1
138 60 1
140 62 1
141 63 1
143 64 1
145 66 1
146 67 1
148 69 1
150 70 1
151 71 1
153 73 1
155 74 1
156 75 1
158 77 1
160 78 1
161 80 1
163 81 1
165 82 1
166 84 1
168 85 1
170 87 1
171 88 1
173 89 1
175 91 1
177 92 1
177 93 1
177 95 1
178 96 2
178 98 3
179 99 4
179 100 5
179 102 6
180 103 8
180 104 9
181 106 10
181 107 11
181 109 12
182 110 13
182 111 15
183 113 16
183 114 17
183 116 18
184 117 19
184 118 20
185 120 22
185 121 23
185 122 24
186 124 25
186 125 26
187 127 27
187 128 29
187 129 30
188 131 31
188 132 32
189 134 33
189 135 35
189 136 36
190 138 37
190 139 38
191 140 39
191 142 40
191 143 42
192 145 43
192 146 44
193 147 45
193 149 46
193 150 47
194 151 49
194 153 50
195 154 51
195 156 52
195 157 53
196 158 54
196 160 56
197 161 57
197 163 58
198 164 59
198 165 60
199 167 62
200 168 63
200 169 64
201 171 65
202 172 66
202 174 67
203 175 69
203 176 70
204 178 71
205 179 72
205 181 73
206 182 74
207 183 76
207 185 77
208 186 78
208 187 79
209 189 80
210 190 81
210 192 83
211 193 84
212 194 85
212 196 86
213 197 87
214 199 89
214 200 91
215 201 93
215 202 96
216 203 98
216 204 101
217 205 103
217 207 106
218 208 108
218 209 111
219 210 113
219 211 116
220 212 118
220 214 121
221 215 123
221 216 126
222 217 128
222 218 131
223 219 133
223 221 136
224 222 138
224 223 141
225 224 143
225 225 146
226 226 148
226 228 151
227 228 153
227 229 156
228 229 158
228 230 161
229 230 163
229 231 166
230 232 168
230 232 171
231 233 173
231 233 176
232 234 178
232 235 181
233 235 183
234 236 186
234 236 189
235 237 192
235 237 195
236 238 198
236 239 202
237 239 205
237 240 208
238 240 211
238 241 214
239 242 218
239 242 219
240 242 220
240 242 221
241 243 222
241 243 224
242 243 225
242 243 226
243 244 227
243 244 229
244 244 230
244 245 231
245 245 232
245 245 234
246 245 235
246 246 236
247 246 237
247 246 239
248 247 240
248 247 241
249 247 242
249 247 244
250 248 245
250 248 246
251 248 247
251 249 248
