P3 1 256 255
0 0 0
2 0 4
4 0 8
6 0 12
8 0 16
10 0 20
12 0 24
14 0 28
16 0 32
18 0 36
20 0 40
22 0 44
24 0 48
26 0 52
28 0 56
30 0 60
32 0 64
34 0 68
36 0 72
38 0 76
40 0 80
42 0 84
44 0 88
46 0 92
48 0 96
50 0 100
52 0 104
50 0 108
49 0 112
48 0 116
47 0 120
46 0 124
45 0 128
44 0 132
43 0 136
42 0 140
41 0 144
40 0 148
39 0 152
38 0 156
37 0 160
36 0 164
35 0 168
34 0 172
33 0 176
32 0 180
31 0 184
30 0 188
29 0 192
28 0 196
27 0 200
26 0 204
25 0 207
24 0 211
23 0 215
22 0 219
21 0 223
20 0 227
19 0 231
18 0 235
17 0 239
16 0 243
15 0 247
14 0 251
13 0 255
12 8 247
11 16 239
10 24 231
9 32 223
8 40 215
7 48 207
6 56 199
5 64 191
4 72 183
3 80 175
2 88 167
1 96 159
0 104 151
0 111 143
1 119 135
2 127 127
3 135 119
4 143 111
5 151 103
6 159 95
7 167 87
8 175 79
9 183 71
10 191 63
11 199 55
12 207 47
13 215 39
14 223 31
15 231 23
16 239 15
17 247 7
18 255 0
19 255 0
20 255 0
21 255 0
22 255 0
23 255 0
24 255 0
28 255 0
32 255 0
36 255 0
40 255 0
44 255 0
48 255 0
52 255 0
56 255 0
60 255 0
64 255 0
68 255 0
72 255 0
76 255 0
80 255 0
84 255 0
88 255 0
92 255 0
96 255 0
100 255 0
104 255 0
108 255 0
112 255 0
116 255 0
120 255 0
124 255 0
128 255 0
132 255 0
136 255 0
140 255 0
144 255 0
148 255 0
152 255 0
156 255 0
160 255 0
164 255 0
168 255 0
172 255 0
176 255 0
180 255 0
184 255 0
188 255 0
192 255 0
196 255 0
200 255 0
204 255 0
208 255 0
212 255 0
216 255 0
220 255 0
224 255 0
228 255 0
229 253 0
230 252 0
231 250 0
232 249 0
233 247 0
234 246 0
235 244 0
236 243 0
237 241 0
238 240 0
239 238 0
240 237 0
241 236 0
242 234 0
243 233 0
244 231 0
245 230 0
246 228 0
247 227 0
248 225 0
249 224 0
250 222 0
251 221 0
252 219 0
253 218 0
255 217 0
255 214 0
255 212 0
255 209 0
255 207 0
255 204 0
255 202 0
255 199 0
255 197 0
255 195 0
255 192 0
255 190 0
255 187 0
255 185 0
255 182 0
255 180 0
255 177 0
255 175 0
255 173 0
255 170 0
255 168 0
255 165 0
255 163 0
255 160 0
255 158 0
255 156 0
255 153 0
255 150 0
255 147 0
255 144 0
255 141 0
255 138 0
255 135 0
255 132 0
255 129 0
255 126 0
255 123 0
255 120 0
255 117 0
255 114 0
255 111 0
255 108 0
255 105 0
255 102 0
255 99 0
255 96 0
255 93 0
255 90 0
255 87 0
255 84 0
255 81 0
255 78 0
255 75 0
255 72 0
255 69 0
255 66 0
255 63 0
255 60 0
255 57 0
255 54 0
255 51 0
255 48 0
255 45 0
255 42 0
255 39 0
255 36 0
255 33 0
255 30 0
255 27 0
255 24 0
255 21 0
255 18 0
255 15 0
255 12 0
255 9 0
255 6 0
255 3 0
