P3 1 256 255
0 0 0
0 0 10
1 1 21
1 2 31
2 3 42
3 4 53
4 4 63
4 5 74
5 6 85
6 7 95
7 8 106
8 8 117
8 9 120
9 10 124
10 11 128
11 12 132
12 12 136
12 13 140
13 14 144
14 15 148
15 16 152
16 16 156
16 17 160
17 18 164
18 19 168
19 20 172
20 21 176
20 23 180
21 26 184
22 28 188
23 31 192
23 34 196
24 36 200
25 39 204
26 42 208
27 44 212
27 47 216
28 50 220
29 52 220
30 55 221
31 57 222
31 60 222
32 63 223
33 65 224
34 68 224
35 71 225
35 73 226
36 76 226
37 79 227
38 81 228
39 84 229
39 87 229
40 91 230
41 96 231
42 101 231
43 106 232
43 110 233
44 115 233
45 120 234
46 125 235
46 129 235
47 134 236
48 139 237
49 144 238
50 149 238
50 153 239
51 158 240
52 163 240
53 168 241
54 172 242
54 177 242
55 182 243
56 187 244
57 191 244
58 196 245
58 201 246
59 206 247
60 211 247
61 215 248
62 220 249
62 225 249
63 230 250
64 234 251
65 239 251
66 244 252
69 249 253
73 254 254
76 250 250
80 247 247
84 244 244
87 241 241
91 238 238
95 235 235
98 232 232
102 229 229
106 226 226
109 223 223
113 220 220
117 217 217
120 214 214
124 211 211
128 208 208
131 205 205
135 202 202
139 199 199
142 196 196
146 193 193
150 190 190
153 187 187
157 184 184
161 181 181
164 178 178
168 175 175
172 172 172
175 169 169
179 166 166
183 163 163
186 160 160
190 157 157
194 154 154
198 151 151
199 148 148
200 145 145
201 142 142
202 139 139
203 136 136
204 133 133
205 130 130
206 127 127
207 124 124
208 121 121
209 118 118
210 115 115
211 112 112
212 109 109
213 106 106
214 103 103
215 100 100
216 97 97
217 94 94
218 91 91
219 88 88
220 85 85
221 82 82
222 79 79
223 76 76
224 73 73
225 70 70
227 67 67
228 64 64
229 61 61
230 58 58
231 55 55
232 52 52
233 49 49
234 46 46
235 43 43
236 40 40
237 37 37
238 34 34
239 31 31
240 28 28
241 25 25
242 22 22
243 19 19
244 16 16
245 13 13
246 10 10
247 7 7
248 4 4
249 1 1
250 3 1
251 6 1
252 9 1
254 12 1
254 15 1
254 18 1
254 21 1
254 24 1
254 27 1
254 30 1
254 33 1
254 36 1
254 39 1
254 42 1
254 45 1
254 48 1
254 51 1
254 54 1
254 57 1
254 60 1
254 63 1
254 66 1
254 69 1
254 72 1
254 75 1
254 78 1
254 81 1
254 84 1
254 87 1
254 90 1
254 93 1
254 96 1
254 99 1
254 102 1
254 105 1
254 108 1
254 111 1
254 114 1
254 117 1
254 120 1
254 123 1
254 126 1
254 128 1
254 131 1
254 134 1
254 137 1
254 140 1
254 143 1
254 146 1
254 149 1
254 152 1
254 155 1
254 158 1
254 161 1
254 164 1
254 167 1
254 170 1
254 173 1
254 176 1
254 179 1
254 182 1
254 185 1
254 188 1
254 191 1
254 194 1
254 197 1
254 200 1
254 203 1
254 206 1
254 209 1
254 212 1
254 215 1
254 218 1
254 221 1
254 224 1
254 227 1
254 230 1
254 233 1
254 236 1
254 239 1
254 242 1
254 245 1
254 248 1
254 251 1
254 254 1
