P3 1 256 255
0 0 0
0 0 2
1 1 5
1 2 8
1 3 11
1 4 14
1 4 17
1 5 19
1 6 22
1 7 25
1 8 28
1 8 31
1 9 34
1 10 37
1 11 39
1 12 42
1 12 45
1 13 48
1 14 51
1 15 54
1 16 56
1 16 59
1 17 62
1 18 65
1 19 68
1 20 71
1 21 74
1 23 77
1 26 80
1 28 83
1 31 86
1 34 89
1 36 92
1 39 95
1 42 98
1 44 101
1 47 104
1 50 107
1 52 110
1 55 113
1 57 116
1 60 119
1 63 122
1 65 125
1 68 128
1 71 131
1 73 134
1 76 137
1 79 140
1 81 143
1 84 146
1 87 149
1 91 152
1 96 155
1 101 158
1 106 161
1 110 164
1 115 167
1 120 170
1 125 173
1 129 176
1 134 179
1 139 182
1 144 185
1 149 188
1 153 191
1 158 194
1 163 197
1 168 200
1 172 203
1 177 206
1 182 209
1 187 212
1 191 215
1 196 218
1 201 221
1 206 224
1 211 227
1 215 230
1 220 233
1 225 236
1 230 239
1 234 242
1 239 245
1 244 248
1 249 251
1 254 254
3 250 250
6 247 247
9 244 244
12 241 241
15 238 238
18 235 235
21 232 232
24 229 229
26 226 226
29 223 223
32 220 220
35 217 217
38 214 214
41 211 211
44 208 208
47 205 205
49 202 202
52 199 199
55 196 196
58 193 193
61 190 190
64 187 187
67 184 184
70 181 181
72 178 178
75 175 175
78 172 172
81 169 169
84 166 166
87 163 163
90 160 160
93 157 157
95 154 154
98 151 151
101 148 148
104 145 145
107 142 142
110 139 139
113 136 136
116 133 133
118 130 130
121 127 127
124 124 124
127 121 121
130 118 118
133 115 115
136 112 112
139 109 109
141 106 106
144 103 103
147 100 100
150 97 97
153 94 94
156 91 91
159 88 88
162 85 85
164 82 82
167 79 79
170 76 76
173 73 73
176 70 70
179 67 67
182 64 64
185 61 61
187 58 58
190 55 55
193 52 52
196 49 49
199 46 46
202 43 43
205 40 40
208 37 37
210 34 34
213 31 31
216 28 28
219 25 25
222 22 22
225 19 19
228 16 16
231 13 13
233 10 10
236 7 7
239 4 4
242 1 1
245 3 1
248 6 1
251 9 1
254 12 1
254 15 1
254 18 1
254 21 1
254 24 1
254 27 1
254 30 1
254 33 1
254 36 1
254 39 1
254 42 1
254 45 1
254 48 1
254 51 1
254 54 1
254 57 1
254 60 1
254 63 1
254 66 1
254 69 1
254 72 1
254 75 1
254 78 1
254 81 1
254 84 1
254 87 1
254 90 1
254 93 1
254 96 1
254 99 1
254 102 1
254 105 1
254 108 1
254 111 1
254 114 1
254 117 1
254 120 1
254 123 1
254 126 1
254 128 1
254 131 1
254 134 1
254 137 1
254 140 1
254 143 1
254 146 1
254 149 1
254 152 1
254 155 1
254 158 1
254 161 1
254 164 1
254 167 1
254 170 1
254 173 1
254 176 1
254 179 1
254 182 1
254 185 1
254 188 1
254 191 1
254 194 1
254 197 1
254 200 1
254 203 1
254 206 1
254 209 1
254 212 1
254 215 1
254 218 1
254 221 1
254 224 1
254 227 1
254 230 1
254 233 1
254 236 1
254 239 1
254 242 1
254 245 1
254 248 1
254 251 1
254 254 1
