P3 1 256 255
32 200 255
31 197 255
31 194 255
31 191 255
31 188 255
31 185 255
30 182 255
30 179 255
30 176 255
30 173 255
30 170 255
29 167 255
29 164 255
29 161 255
29 158 255
29 155 255
28 152 255
28 149 255
28 146 255
28 143 255
28 140 255
27 137 255
27 134 255
27 131 255
27 128 255
27 125 255
27 122 255
26 119 255
26 116 255
26 113 255
26 110 255
25 107 255
25 104 255
25 101 255
25 98 255
25 95 255
24 92 255
24 89 255
24 86 255
24 83 255
24 80 255
23 77 255
23 74 255
23 71 255
23 68 255
23 65 255
22 62 255
22 59 255
22 56 255
22 53 255
22 50 255
22 47 255
21 45 252
21 44 250
21 43 247
20 42 245
20 40 243
20 39 240
20 38 238
19 37 236
19 35 233
19 34 231
19 33 229
18 32 226
18 30 224
18 29 222
17 28 219
17 27 217
17 26 215
17 24 212
16 23 210
16 22 208
16 21 205
16 19 203
15 18 201
15 17 198
15 16 196
15 15 194
14 14 190
14 14 186
14 14 182
13 13 178
13 13 175
13 13 171
13 13 167
12 12 163
12 12 159
12 12 156
11 11 152
11 11 148
11 11 144
11 11 140
10 10 137
10 10 133
10 10 129
9 9 125
9 9 121
9 9 118
9 9 114
8 8 110
8 8 106
8 8 102
8 8 99
7 7 95
7 7 91
7 7 87
6 6 83
6 6 79
6 6 76
5 5 72
5 5 68
5 5 64
4 4 60
4 4 57
4 4 53
3 3 49
3 3 45
3 3 41
3 3 38
2 2 34
2 2 30
2 2 26
1 1 22
1 1 19
1 1 15
0 0 11
0 0 7
0 0 3
0 0 0
3 0 0
7 0 0
11 0 0
15 0 0
19 0 0
23 0 0
27 0 0
31 0 0
34 0 0
38 0 0
42 0 0
46 0 0
50 0 0
54 0 0
58 0 0
62 0 0
65 0 0
69 0 0
73 0 0
77 0 0
81 0 0
85 0 0
89 0 0
93 0 0
97 1 0
101 1 0
105 1 0
109 1 0
113 1 0
117 1 0
121 1 0
125 1 0
129 1 0
133 1 0
137 1 0
141 1 0
145 1 0
149 1 0
153 1 0
157 1 0
161 1 0
165 1 0
169 1 0
173 1 0
177 1 0
181 1 0
185 1 0
189 1 0
193 1 0
197 1 0
202 2 0
204 3 0
206 5 0
208 7 0
210 9 0
212 11 0
214 13 0
216 15 0
218 17 0
221 19 0
223 21 0
225 23 0
227 25 0
229 26 0
231 28 0
233 30 0
235 32 0
238 34 0
240 36 0
242 38 0
244 40 0
246 42 0
248 44 0
250 46 0
252 48 0
255 50 0
255 54 0
255 58 0
255 62 0
255 66 0
255 70 0
255 74 0
255 78 0
255 82 0
255 86 0
255 90 0
255 94 0
255 98 0
255 102 0
255 106 0
255 110 0
255 114 0
255 118 0
255 122 0
255 126 0
255 130 8
255 134 16
255 138 24
255 142 32
255 146 40
255 150 48
255 154 56
255 158 63
255 162 71
255 166 79
255 170 87
255 174 95
255 178 103
255 182 111
255 186 119
255 190 127
255 194 135
255 198 143
255 202 151
255 206 159
255 210 167
255 214 175
255 218 183
255 222 191
255 226 199
255 230 207
255 234 215
255 238 223
255 242 231
255 246 239
255 250 247
255 255 254
