P3 1 256 255
0 2 0
1 2 0
3 3 0
4 4 0
6 5 0
8 6 0
9 6 0
11 7 0
12 8 0
14 9 0
16 10 0
17 10 0
19 11 0
21 12 0
22 13 0
24 14 0
25 14 0
27 15 0
29 16 0
30 17 0
32 18 0
34 18 0
35 19 0
37 20 0
38 21 0
40 22 0
42 23 0
43 23 0
45 24 0
47 25 0
48 26 0
50 27 0
51 27 0
53 28 0
55 29 0
56 30 0
58 31 0
60 31 0
61 32 0
63 33 0
64 34 0
66 35 0
68 35 0
69 36 0
71 37 0
72 38 0
74 39 0
76 39 0
77 40 0
79 41 0
81 42 0
82 43 0
84 44 0
85 44 0
87 45 0
89 46 0
90 47 0
92 48 0
94 48 0
95 49 0
97 50 0
98 51 0
100 52 0
102 52 0
103 53 0
105 54 0
107 55 0
108 56 0
110 56 0
111 57 0
113 58 0
115 59 0
116 60 0
118 60 0
120 61 0
121 62 0
123 63 0
124 64 0
126 65 0
128 65 0
129 66 0
131 67 0
132 68 0
134 69 0
136 69 0
137 70 0
139 71 0
141 72 0
142 73 0
144 73 0
145 74 0
147 75 0
149 76 0
150 77 0
152 77 0
154 78 0
155 79 0
157 80 0
158 81 0
160 81 0
162 82 0
163 83 0
165 84 0
167 85 0
168 86 0
170 86 0
171 87 0
173 88 0
175 89 0
176 90 0
178 90 0
180 91 0
181 92 0
183 93 0
184 94 0
186 94 0
188 95 0
189 96 0
191 97 0
192 98 0
194 98 0
196 99 0
197 100 0
199 101 0
201 102 0
202 102 0
204 103 0
205 104 0
207 105 0
209 106 0
210 107 0
212 107 0
214 108 0
215 109 0
217 110 0
218 111 0
220 111 0
222 112 0
223 113 0
225 114 0
227 115 0
228 115 0
230 116 0
231 117 0
233 118 0
235 119 0
236 119 0
238 120 0
240 121 0
241 122 0
243 123 0
244 123 0
246 124 0
248 125 0
249 126 0
251 127 0
253 128 0
253 128 0
254 129 0
255 130 0
255 131 0
255 132 0
255 132 0
255 133 0
255 134 0
255 135 0
255 136 0
255 136 0
255 137 0
255 138 0
255 139 0
255 140 0
255 140 0
255 141 0
255 142 0
255 143 0
255 144 0
255 144 0
255 145 0
255 146 0
255 147 0
255 148 0
255 149 0
255 149 0
255 150 0
255 151 0
255 152 0
255 153 0
255 153 0
255 154 0
255 155 0
255 156 0
255 157 0
255 157 0
255 158 0
255 159 0
255 160 0
255 161 0
255 161 0
255 162 0
255 163 0
255 164 0
255 165 0
255 165 0
255 166 0
255 167 0
255 168 0
255 169 0
255 170 0
255 170 0
255 171 0
255 172 0
255 173 0
255 174 0
255 174 0
255 175 0
255 176 0
255 177 0
255 178 0
255 178 0
255 179 0
255 180 0
255 181 0
255 182 0
255 182 0
255 183 0
255 184 0
255 185 0
255 186 0
255 186 0
255 187 0
255 188 0
255 189 0
255 190 0
255 191 0
255 191 0
255 192 0
255 193 0
255 194 0
255 195 0
255 195 0
255 196 0
255 197 0
255 198 0
255 199 0
255 199 0
255 200 0
255 201 0
255 202 0
255 203 0
255 203 0
255 204 0
255 205 0
255 206 0
255 207 0
255 208 0
