P3 1 256 255
0 0 0
0 2 1
0 4 3
0 6 5
0 8 7
0 10 9
0 12 11
0 14 13
0 16 15
0 18 17
0 20 19
0 22 21
0 24 23
0 26 25
0 28 27
0 30 29
0 32 31
0 34 33
0 36 35
0 38 37
0 40 39
0 42 41
0 44 43
0 46 45
0 48 47
0 50 49
0 52 51
0 54 53
0 56 55
0 58 57
0 60 59
0 62 61
0 64 63
0 66 65
0 68 67
0 70 69
0 72 71
0 74 73
0 76 75
0 78 77
0 80 79
0 82 81
0 84 83
0 86 85
0 88 87
0 90 89
0 92 91
0 94 93
0 96 95
0 98 97
0 100 99
0 103 101
1 102 103
2 102 105
3 102 107
4 102 109
5 102 111
6 102 113
7 102 115
8 102 117
9 101 119
10 101 121
11 101 123
12 101 125
13 101 127
14 101 129
15 101 131
16 101 133
17 101 135
18 100 137
19 100 139
20 100 141
21 100 143
22 100 145
23 100 147
24 100 149
25 100 151
27 100 153
29 98 155
31 96 157
33 94 159
35 92 161
37 90 163
39 88 165
41 86 167
43 84 169
45 82 171
47 80 173
49 78 175
51 76 177
53 74 179
55 72 181
57 70 183
59 68 185
61 66 187
63 64 189
65 62 191
67 60 193
69 58 195
71 56 197
73 54 199
75 52 201
77 51 203
78 49 205
80 47 207
82 45 209
84 43 211
86 41 213
88 39 215
90 37 217
92 35 219
94 33 221
96 31 223
98 29 225
100 27 227
102 25 229
104 23 231
106 21 233
108 19 235
110 17 237
112 15 239
114 13 241
116 11 243
118 9 245
120 7 247
122 5 249
124 3 251
126 1 253
128 0 255
129 2 251
131 4 247
133 6 243
135 8 239
137 10 235
139 12 231
141 14 227
143 16 223
145 18 219
147 20 215
149 22 211
151 24 207
153 26 203
155 28 199
157 30 195
159 32 191
161 34 187
163 36 183
165 38 179
167 40 175
169 42 171
171 44 167
173 46 163
175 48 159
177 50 156
179 52 152
181 54 148
183 56 144
185 58 140
187 60 136
189 62 132
191 64 128
193 66 124
195 68 120
197 70 116
199 72 112
201 74 108
203 76 104
205 78 100
207 80 96
209 82 92
211 84 88
213 86 84
215 88 80
217 90 76
219 92 72
221 94 68
223 96 64
225 98 60
227 100 56
229 102 52
230 104 51
231 106 51
232 108 51
233 110 51
234 112 51
235 114 51
236 116 50
237 118 50
238 120 50
239 122 50
240 124 50
241 126 50
242 128 49
243 130 49
244 132 49
245 134 49
246 136 49
247 138 49
248 140 48
249 142 48
250 144 48
251 146 48
252 148 48
253 150 48
255 152 48
255 154 52
255 156 56
255 158 60
255 160 64
255 162 68
255 164 72
255 166 76
255 168 80
255 170 84
255 172 88
255 174 92
255 176 96
255 178 100
255 180 104
255 182 108
255 184 112
255 186 116
255 188 120
255 190 124
255 192 128
255 194 132
255 196 136
255 198 140
255 200 144
255 202 148
255 204 153
255 206 157
255 208 161
255 210 165
255 212 169
255 214 173
255 216 177
255 218 181
255 220 185
255 222 189
255 224 193
255 226 197
255 228 201
255 230 206
255 232 210
255 234 214
255 236 218
255 238 222
255 240 226
255 242 230
255 244 234
255 246 238
255 248 242
255 250 246
255 252 250
255 255 255
