P3 1 256 255
0 0 0
1 1 0
3 2 0
5 3 0
7 4 0
9 5 0
11 6 0
13 7 1
15 8 1
16 9 1
18 10 1
20 11 1
22 12 1
24 13 2
26 14 2
28 15 2
30 16 2
32 17 2
33 18 2
35 19 2
37 20 3
39 21 3
41 22 3
43 23 3
45 24 3
47 25 3
49 26 4
50 27 4
52 28 4
54 29 4
55 30 4
57 31 5
59 32 5
61 33 5
62 34 5
64 35 5
66 36 6
67 37 6
69 38 6
71 39 6
73 40 6
74 41 7
76 42 7
78 43 7
79 44 7
81 45 7
83 46 8
85 47 8
86 48 8
88 49 8
90 50 8
92 51 9
93 52 9
95 53 9
96 54 9
98 55 9
99 56 9
101 57 9
102 58 10
104 59 10
105 60 10
107 61 10
108 62 10
110 63 10
111 64 11
113 65 11
114 66 11
116 67 11
117 68 11
119 69 11
120 70 11
122 71 12
123 72 12
125 73 12
126 74 12
128 75 12
129 76 12
131 77 13
132 78 13
133 79 13
134 80 13
136 81 13
137 82 13
138 83 13
139 84 14
141 85 14
142 86 14
143 87 14
145 88 14
146 89 14
147 90 15
148 91 15
150 92 15
151 93 15
152 94 15
154 95 15
155 96 16
156 97 16
157 98 16
159 99 16
160 100 16
161 101 16
163 102 17
164 103 17
165 104 18
166 105 18
167 106 19
168 107 19
169 108 20
170 109 21
171 110 21
173 111 22
174 112 22
175 113 23
176 114 23
177 115 24
178 116 25
179 117 25
180 118 26
181 119 26
183 120 27
184 121 27
185 122 28
186 123 29
187 124 29
188 125 30
189 126 30
190 127 31
192 128 32
192 129 32
193 130 33
194 131 34
195 132 35
196 133 36
197 134 37
198 135 38
199 136 39
199 137 40
200 138 41
201 139 42
202 140 43
203 141 43
204 142 44
205 143 45
206 144 46
206 145 47
207 146 48
208 147 49
209 148 50
210 149 51
211 150 52
212 151 53
213 152 54
214 153 55
214 154 56
215 155 57
216 156 58
216 157 60
217 158 61
218 159 62
218 160 63
219 161 65
220 162 66
220 163 67
221 164 68
222 165 70
222 166 71
223 167 72
224 168 74
225 169 75
225 170 76
226 171 77
227 172 79
227 173 80
228 174 81
229 175 82
229 176 84
230 177 85
231 178 86
232 179 88
232 180 89
233 181 91
233 182 93
234 183 94
234 184 96
235 185 98
235 186 100
236 187 101
236 188 103
237 189 105
237 190 106
238 191 108
238 192 110
239 193 112
239 194 113
240 195 115
240 196 117
241 197 118
241 198 120
242 199 122
242 200 124
243 201 125
243 202 127
244 203 129
245 204 131
245 205 133
245 206 135
245 207 137
246 208 139
246 209 141
246 210 143
247 211 146
247 212 148
247 213 150
248 214 152
248 215 154
248 216 156
249 217 158
249 218 161
249 219 163
249 220 165
250 221 167
250 222 169
250 223 171
251 224 174
251 225 176
251 226 178
252 227 180
252 228 182
252 229 184
253 230 187
253 231 189
253 232 192
253 233 195
253 234 197
253 235 200
253 236 203
253 237 206
253 238 208
253 239 211
253 240 214
253 241 216
253 242 219
254 243 222
254 244 225
254 245 227
254 246 230
254 247 233
254 248 235
254 249 238
254 250 241
254 251 244
254 252 246
254 253 249
254 254 252
255 255 255
