P3 1 256 255
2 0 0
4 0 0
7 0 0
9 0 0
12 0 0
15 0 0
17 0 0
20 0 0
23 0 0
25 0 0
28 0 0
31 0 0
33 0 0
36 0 0
39 0 0
41 0 0
44 0 0
47 0 0
49 0 0
52 0 0
55 0 0
57 0 0
60 0 0
63 0 0
65 0 0
68 0 0
71 0 0
73 0 0
76 0 0
79 0 0
81 0 0
84 0 0
87 0 0
89 0 0
92 0 0
95 0 0
97 0 0
100 0 0
103 0 0
105 0 0
108 0 0
111 0 0
113 0 0
116 0 0
119 0 0
121 0 0
124 0 0
127 0 0
129 0 0
132 0 0
135 0 0
138 0 0
140 0 0
143 0 0
145 0 0
148 0 0
151 0 0
153 0 0
156 0 0
159 0 0
161 0 0
164 0 0
167 0 0
169 0 0
172 0 0
175 0 0
177 0 0
180 0 0
183 0 0
185 0 0
188 0 0
191 0 0
193 0 0
196 0 0
199 0 0
201 0 0
204 0 0
207 0 0
208 0 0
210 1 0
212 2 0
214 2 0
216 3 0
218 4 0
220 5 0
222 5 0
224 6 0
226 7 0
228 7 0
230 8 0
231 9 0
233 10 0
235 10 0
237 11 0
239 12 0
241 12 0
243 13 0
245 14 0
247 15 0
249 15 0
251 16 0
253 17 0
255 18 0
255 20 0
255 23 0
255 25 0
255 28 0
255 31 0
255 33 0
255 36 0
255 39 0
255 41 0
255 44 0
255 47 0
255 49 0
255 52 0
255 55 0
255 57 0
255 60 0
255 63 0
255 65 0
255 68 0
255 71 0
255 73 0
255 76 0
255 79 0
255 81 0
255 84 0
255 87 0
255 89 0
255 92 0
255 95 0
255 97 0
255 100 0
255 103 0
255 105 0
255 108 0
255 111 0
255 113 0
255 116 0
255 119 0
255 121 0
255 124 0
255 127 0
255 129 0
255 132 0
255 135 0
255 137 0
255 140 0
255 143 0
255 145 0
255 148 0
255 151 0
255 154 0
255 156 0
255 159 0
255 161 0
255 164 0
255 167 0
255 169 0
255 172 0
255 175 0
255 177 0
255 180 0
255 183 0
255 185 0
255 188 0
255 191 0
255 193 0
255 196 0
255 199 0
255 201 0
255 204 0
255 207 0
255 209 0
255 212 0
255 215 0
255 217 0
255 220 0
255 223 0
255 224 2
255 225 4
255 226 6
255 228 8
255 229 10
255 230 12
255 231 14
255 233 16
255 234 18
255 235 20
255 237 22
255 238 24
255 239 26
255 240 28
255 242 30
255 243 32
255 244 34
255 246 36
255 247 38
255 248 40
255 249 42
255 251 44
255 252 46
255 253 48
255 255 51
255 255 55
255 255 59
255 255 63
255 255 67
255 255 71
255 255 75
255 255 79
255 255 83
255 255 87
255 255 91
255 255 95
255 255 99
255 255 103
255 255 107
255 255 111
255 255 115
255 255 119
255 255 123
255 255 127
255 255 131
255 255 135
255 255 139
255 255 143
255 255 147
255 255 151
255 255 155
255 255 159
255 255 163
255 255 167
255 255 171
255 255 175
255 255 179
255 255 183
255 255 187
255 255 191
255 255 195
255 255 199
255 255 203
255 255 207
255 255 211
255 255 215
255 255 219
255 255 223
255 255 227
255 255 231
255 255 235
255 255 239
255 255 243
255 255 247
255 255 251
255 255 255
