P3 1 256 255
255 0 0
255 5 0
255 11 0
255 17 0
255 23 0
255 29 0
255 35 0
255 41 0
255 47 0
255 53 0
255 59 0
255 65 0
255 71 0
255 77 0
255 83 0
255 89 0
255 95 0
255 101 0
255 107 0
255 113 0
255 119 0
255 125 0
255 131 0
255 137 0
255 143 0
255 149 0
255 155 0
253 159 0
251 163 0
249 167 0
247 171 0
245 175 0
243 179 0
241 183 0
239 187 0
237 191 0
235 195 0
233 199 0
231 203 0
229 207 0
227 211 0
225 215 0
223 219 0
221 223 0
219 227 0
217 231 0
215 235 0
213 239 0
211 243 0
209 247 0
207 251 0
205 255 0
199 255 0
193 255 0
187 255 0
181 255 0
175 255 0
169 255 0
163 255 0
157 255 0
151 255 0
145 255 0
139 255 0
133 255 0
127 255 0
121 255 0
115 255 0
109 255 0
103 255 0
97 255 0
91 255 0
85 255 0
79 255 0
73 255 0
67 255 0
61 255 0
55 255 0
49 255 0
47 255 3
45 255 7
43 255 11
41 255 15
39 255 19
37 255 23
35 255 27
33 255 31
31 255 35
29 255 39
27 255 43
25 255 47
23 255 51
21 255 55
19 255 59
17 255 63
15 255 67
13 255 71
11 255 75
9 255 79
7 255 83
5 255 87
3 255 91
1 255 95
0 255 99
0 255 105
0 255 111
0 255 117
0 255 123
0 255 129
0 255 135
0 255 141
0 255 147
0 255 153
0 255 159
0 255 165
0 255 171
0 255 177
0 255 183
0 255 189
0 255 195
0 255 201
0 255 207
0 255 213
0 255 219
0 255 225
0 255 231
0 255 237
0 255 243
0 255 249
0 255 255
0 249 255
0 243 255
0 237 255
0 231 255
0 225 255
0 219 255
0 213 255
0 207 255
0 201 255
0 195 255
0 189 255
0 183 255
0 177 255
0 171 255
0 165 255
0 159 255
0 153 255
0 147 255
0 141 255
0 135 255
0 129 255
0 123 255
0 117 255
0 111 255
0 105 255
1 100 255
3 96 255
5 92 255
7 88 255
9 84 255
11 80 255
13 76 255
15 72 255
16 68 255
18 64 255
20 60 255
22 56 255
24 52 255
26 48 255
28 44 255
30 40 255
32 36 255
33 32 255
35 28 255
37 24 255
39 20 255
41 16 255
43 12 255
45 8 255
47 4 255
49 0 255
55 0 255
61 0 255
67 0 255
73 0 255
79 0 255
85 0 255
91 0 255
97 0 255
103 0 255
109 0 255
115 0 255
121 0 255
127 0 255
133 0 255
139 0 255
145 0 255
151 0 255
157 0 255
163 0 255
169 0 255
175 0 255
181 0 255
187 0 255
193 0 255
199 0 255
201 0 251
203 0 247
205 0 243
207 0 239
209 0 235
211 0 231
214 0 228
216 0 224
218 0 220
220 0 216
222 0 212
224 0 208
226 0 204
229 0 201
231 0 197
233 0 193
235 0 189
237 0 185
239 0 181
242 0 178
244 0 174
246 0 170
248 0 166
250 0 162
252 0 158
255 0 155
255 0 149
255 0 143
255 0 137
255 0 131
255 0 125
255 0 119
255 0 113
255 0 107
255 0 101
255 0 95
255 0 89
255 0 83
255 0 77
255 0 71
255 0 65
255 0 59
255 0 53
255 0 47
255 0 41
255 0 35
255 0 29
255 0 23
255 0 17
255 0 11
255 0 5
