P3 1 256 255
0 0 0
3 0 0
7 0 0
11 0 0
14 0 0
18 0 0
22 0 0
26 0 0
29 0 0
33 0 0
37 0 0
40 0 0
44 0 0
48 0 0
52 0 0
55 0 0
59 0 0
63 0 0
66 0 0
70 1 0
74 2 0
78 2 0
81 3 0
85 4 0
89 4 0
92 5 0
96 6 0
100 6 0
104 7 0
107 8 0
111 9 0
115 9 0
119 10 0
120 11 0
121 11 0
122 12 0
124 13 0
125 13 0
126 14 0
127 15 0
129 16 0
130 16 0
131 17 0
133 18 0
134 18 0
135 19 0
136 20 0
138 21 0
139 22 0
140 23 0
141 24 0
143 26 0
144 27 0
145 28 0
147 29 0
148 31 0
149 32 0
150 33 0
152 34 0
153 36 0
154 37 0
155 38 0
157 40 0
158 41 0
159 42 0
161 43 0
162 45 0
163 46 0
164 47 0
166 48 0
167 50 0
168 51 0
169 52 0
171 54 0
172 55 0
173 56 0
175 57 0
176 59 0
177 60 0
178 61 0
180 62 0
181 64 0
182 65 0
183 66 0
185 68 0
186 69 0
187 70 1
189 71 2
190 73 3
191 74 4
192 75 5
194 76 6
195 78 7
196 79 8
198 80 9
198 82 10
199 83 11
200 84 12
200 85 13
201 87 14
202 88 15
202 89 16
203 90 17
204 92 18
204 93 19
205 94 20
206 96 21
206 97 22
207 98 23
208 100 24
209 101 25
209 103 26
210 104 27
211 106 28
211 107 29
212 109 30
213 110 31
213 112 32
214 113 33
215 115 34
215 116 35
216 118 36
217 119 37
218 121 38
218 122 39
219 123 40
220 125 41
220 126 42
221 128 43
222 129 44
222 131 45
223 132 46
224 134 47
224 135 48
225 137 49
226 138 50
226 140 51
227 141 52
228 143 53
229 144 54
229 146 55
230 147 56
231 149 57
231 150 58
232 151 59
233 153 60
233 154 61
234 156 62
235 157 63
235 159 64
236 160 65
237 162 66
238 163 67
238 165 68
238 166 69
238 168 70
239 169 71
239 171 72
239 172 73
240 174 74
240 175 76
240 177 78
241 178 80
241 179 82
241 181 85
241 182 87
242 184 89
242 185 91
242 187 94
243 188 96
243 190 98
243 191 101
244 193 103
244 194 105
244 196 107
245 197 110
245 199 112
245 200 114
245 202 117
246 203 119
246 205 121
246 206 123
247 208 126
247 208 128
247 209 130
248 210 133
248 211 135
248 212 137
249 212 139
249 213 142
249 214 144
249 215 146
249 216 149
249 216 151
249 217 153
249 218 155
249 219 158
249 220 160
249 220 162
249 221 165
249 222 167
249 223 169
249 224 171
249 224 174
249 225 176
249 226 178
249 227 181
249 228 183
249 228 185
249 229 187
249 230 190
249 231 192
249 232 194
249 232 197
249 233 199
249 234 201
249 235 203
249 236 206
249 236 208
249 237 210
249 238 213
249 239 214
249 240 215
249 240 216
249 241 217
249 242 218
249 243 219
249 244 220
249 244 221
249 245 222
249 246 223
249 247 224
249 248 226
249 248 227
249 248 228
249 248 229
249 248 230
249 248 231
249 248 232
249 248 233
249 248 234
249 248 235
249 248 236
249 248 237
249 248 239
249 248 240
249 248 241
249 248 242
249 248 243
249 248 244
249 248 245
249 248 246
249 248 247
249 248 248
249 248 249
249 248 250
