P3 1 256 255
0 0 168
0 0 168
0 0 168
0 0 168
0 0 168
0 0 168
0 0 168
0 0 168
0 0 168
0 0 168
0 0 168
0 0 168
0 0 168
0 0 168
0 0 168
0 0 168
0 0 168
0 0 168
0 0 168
0 0 168
0 0 168
0 0 168
0 0 168
0 0 168
0 0 168
0 0 168
0 0 168
0 0 168
0 0 168
0 0 168
0 0 168
0 0 168
0 0 168
0 0 168
0 0 168
0 0 168
0 0 168
0 0 168
0 0 168
0 0 168
0 0 168
0 0 168
0 0 168
0 0 168
0 0 168
0 0 168
0 0 168
0 0 168
0 0 168
0 0 168
0 0 168
0 0 168
0 0 168
0 0 168
0 0 168
0 0 168
0 0 168
0 0 168
0 0 168
0 0 168
0 0 168
0 0 168
0 0 168
0 0 168
0 0 168
0 0 168
0 0 168
0 0 168
0 0 168
0 0 168
0 0 168
0 0 168
0 0 168
0 0 168
0 0 168
0 0 168
0 0 168
0 0 168
0 0 168
0 0 168
0 0 168
0 0 168
0 0 168
0 0 168
0 0 168
0 0 168
0 0 168
0 0 168
0 0 168
0 0 168
0 0 168
0 0 168
0 0 168
0 0 168
0 0 168
0 0 134
0 0 101
0 0 67
0 0 34
0 0 1
64 90 1
64 89 1
64 88 1
64 87 1
64 86 1
64 85 1
64 85 1
64 84 1
64 83 1
64 82 1
64 81 1
64 80 1
64 80 1
64 79 1
64 78 1
64 77 1
64 76 1
64 76 1
64 75 1
64 74 1
64 73 1
64 72 1
64 71 1
64 71 1
64 70 1
64 69 1
64 68 1
64 67 1
64 67 1
64 66 1
64 65 1
64 64 1
64 63 1
64 62 1
64 62 1
64 61 1
64 60 1
64 59 1
64 58 1
64 58 1
64 57 1
64 56 1
64 55 1
64 54 1
64 53 1
64 53 1
64 52 1
64 51 1
64 50 1
64 49 1
64 49 1
64 48 1
64 47 1
64 46 1
64 45 1
64 44 1
64 44 1
64 43 1
64 42 1
64 41 1
64 40 1
64 40 1
64 39 1
64 38 1
64 37 1
64 36 1
64 35 1
64 35 1
64 34 1
64 33 1
64 32 1
64 31 1
64 31 1
64 30 1
64 29 1
64 28 1
64 27 1
64 26 1
64 26 1
64 25 1
64 24 1
64 23 1
64 22 1
64 22 1
64 21 1
64 20 1
64 19 1
64 18 1
64 17 1
64 17 1
64 16 1
64 15 1
64 14 1
64 13 1
64 13 1
64 12 1
64 11 1
64 10 1
64 9 1
64 8 1
64 8 1
64 7 1
64 6 1
64 5 1
64 4 1
64 4 1
64 3 1
64 2 1
64 1 1
64 0 1
64 0 1
132 100 255
201 201 254
202 202 254
203 203 254
204 204 254
205 205 254
207 207 254
208 208 254
209 209 254
210 210 254
212 212 254
213 213 254
214 214 254
215 215 254
217 217 254
218 218 254
219 219 254
220 220 254
221 221 254
223 223 254
224 224 254
225 225 254
226 226 254
228 228 254
229 229 254
230 230 254
231 231 254
233 233 254
234 234 254
235 235 254
236 236 254
237 237 254
239 239 254
240 240 254
241 241 254
242 242 254
244 244 254
245 245 254
246 246 254
247 247 254
249 249 254
250 250 254
251 251 254
252 252 254
253 253 253
