P3 1 256 255
1 4 0
1 3 0
2 3 0
3 3 0
4 3 0
5 3 0
6 3 0
7 3 0
8 3 0
9 3 0
10 3 0
11 3 0
12 3 0
13 3 0
14 3 0
15 3 0
16 3 0
17 2 0
18 2 0
19 2 0
20 2 0
21 2 0
22 2 0
23 2 0
24 2 0
25 2 0
26 2 0
27 2 0
28 2 0
29 2 0
30 2 0
31 2 0
32 2 0
33 1 0
34 1 0
35 1 0
36 1 0
37 1 0
38 1 0
39 1 0
40 1 0
41 1 0
42 1 0
43 1 0
44 1 0
45 1 0
46 1 0
47 1 0
48 1 0
49 1 0
50 1 0
51 1 0
52 1 0
53 1 0
54 1 0
55 1 0
56 1 0
57 1 0
58 1 0
59 1 0
60 1 0
61 1 0
62 1 0
63 1 0
64 1 0
65 1 0
66 1 0
67 1 0
68 1 0
69 1 0
70 1 0
71 2 0
72 2 0
73 2 0
74 2 0
75 2 0
76 2 0
77 2 0
78 2 0
79 2 0
80 2 0
81 2 0
82 2 0
83 2 0
84 2 0
85 2 0
86 2 0
87 2 0
88 2 1
89 2 1
90 2 1
91 2 1
92 2 1
93 3 1
94 4 1
95 6 1
96 7 1
97 9 1
98 11 1
99 12 1
100 14 1
101 16 1
102 17 1
103 19 1
104 21 1
105 22 1
106 24 1
107 26 1
108 27 1
109 29 1
110 31 1
111 32 1
112 34 1
113 36 1
114 37 1
115 39 1
116 40 1
117 42 1
118 44 1
119 45 1
120 47 1
121 49 1
122 50 1
123 52 1
124 54 1
125 55 1
126 57 1
127 59 1
128 60 1
129 62 1
130 64 1
131 65 1
132 67 1
133 69 1
134 70 1
135 72 1
136 73 1
137 75 1
138 77 1
139 78 1
140 80 1
141 82 1
142 83 1
143 85 1
144 87 1
145 88 1
146 90 1
147 92 1
148 93 2
149 95 3
150 97 4
151 98 5
152 100 6
153 102 7
154 103 8
155 105 9
156 107 10
157 108 11
158 110 13
159 111 14
160 113 15
161 114 16
162 116 17
163 117 18
164 119 19
165 120 20
166 122 21
167 123 22
168 125 23
169 126 25
170 128 26
171 130 27
172 131 28
173 133 29
174 134 30
175 136 31
176 137 32
177 139 33
178 140 34
179 142 36
180 143 39
181 145 42
182 146 45
183 148 48
184 149 51
185 151 54
186 153 57
187 154 60
188 156 63
189 157 66
190 159 69
191 160 72
192 162 75
193 163 78
194 165 81
195 166 84
196 168 87
197 169 90
198 171 93
199 172 96
200 174 99
201 176 102
202 177 105
203 179 108
204 180 111
205 182 114
206 183 117
207 185 120
208 186 123
209 188 126
210 189 129
211 191 132
212 192 135
213 194 138
214 195 141
215 197 144
216 199 147
217 200 150
218 202 153
219 203 156
220 205 159
221 206 162
222 208 165
223 209 168
224 211 171
225 212 174
226 214 177
227 215 180
228 217 183
229 219 186
230 221 189
231 222 192
232 223 194
233 225 196
234 226 199
235 227 201
236 229 204
237 230 206
238 231 208
239 233 211
240 234 213
241 235 216
242 237 218
243 238 220
244 240 223
245 241 225
246 242 228
247 244 230
248 245 233
249 246 235
250 248 237
251 249 240
252 250 242
253 252 245
254 253 247
255 255 249
