P3 1 256 255
0 0 0
5 0 11
11 0 22
17 0 34
22 0 45
28 0 56
34 0 68
39 0 79
45 0 90
51 0 102
56 0 113
62 0 124
68 0 136
73 0 147
79 0 158
85 0 170
79 0 164
74 0 159
68 0 154
63 0 148
58 0 143
52 0 138
47 0 132
42 0 127
36 0 122
31 0 116
26 0 111
20 0 106
15 0 100
10 0 95
5 0 90
0 0 85
0 0 90
0 0 95
0 0 100
0 0 106
0 0 111
0 0 116
0 0 122
0 0 127
0 0 132
0 0 138
0 0 143
0 0 148
0 0 154
0 0 159
0 0 164
0 0 170
0 0 175
0 0 180
0 0 185
0 0 191
0 0 196
0 0 201
0 0 207
0 0 212
0 0 217
0 0 223
0 0 228
0 0 233
0 0 239
0 0 244
0 0 249
0 0 255
0 5 255
0 10 255
0 15 255
0 21 255
0 26 255
0 31 255
0 36 255
0 42 255
0 47 255
0 52 255
0 58 255
0 63 255
0 68 255
0 74 255
0 79 255
0 84 255
0 89 249
0 95 244
0 100 239
0 105 233
0 111 228
0 116 223
0 121 217
0 127 212
0 132 207
0 137 201
0 143 196
0 148 191
0 153 185
0 159 180
0 164 175
0 169 170
0 175 170
0 180 170
0 185 170
0 191 170
0 196 170
0 201 170
0 207 170
0 212 170
0 217 170
0 222 170
0 228 170
0 233 170
0 238 170
0 244 170
0 249 170
0 255 170
0 255 159
0 255 148
0 255 138
0 255 127
0 255 116
0 255 106
0 255 95
0 255 85
0 255 74
0 255 63
0 255 53
0 255 42
0 255 31
0 255 21
0 255 10
0 255 0
5 255 5
12 255 10
19 255 15
27 255 21
34 255 26
42 255 31
49 255 37
57 255 42
64 255 47
71 255 53
79 255 58
86 255 63
94 255 69
101 255 74
109 255 79
116 255 85
124 255 79
131 255 74
138 255 69
146 255 63
153 255 58
161 255 53
168 255 47
176 255 42
183 255 37
191 255 31
201 255 26
212 255 21
222 255 15
233 255 10
244 255 5
255 255 0
255 249 0
255 244 0
255 238 0
255 233 0
255 228 0
255 222 0
255 217 0
255 212 0
255 206 0
255 201 0
255 196 0
255 190 0
255 185 0
255 180 0
255 174 0
255 169 0
255 164 0
255 158 0
255 153 0
255 148 0
255 143 0
255 139 0
255 135 0
255 131 0
255 126 0
255 122 0
255 118 0
255 114 0
255 109 0
255 105 0
255 101 0
255 97 0
255 92 0
255 88 0
255 84 0
255 80 0
255 75 0
255 71 0
255 67 0
255 63 0
255 58 0
255 54 0
255 50 0
255 46 0
255 42 0
253 40 0
252 38 0
251 37 0
250 35 0
249 33 0
248 32 0
246 30 0
245 29 0
244 27 0
243 25 0
242 24 0
241 22 0
240 20 0
238 19 0
237 17 0
236 16 0
235 14 0
234 12 0
233 11 0
231 9 0
230 8 0
229 6 0
228 4 0
227 3 0
226 1 0
225 0 0
216 0 0
207 0 0
198 0 0
189 0 0
180 0 0
171 0 0
162 0 0
153 0 0
144 0 0
135 0 0
126 0 0
117 0 0
108 0 0
99 0 0
90 0 0
81 0 0
72 0 0
63 0 0
54 0 0
45 0 0
36 0 0
27 0 0
18 0 0
9 0 0
0 0 0
