P3 1 256 255
0 0 31
1 0 35
2 0 39
3 0 43
4 0 47
5 0 51
6 0 55
7 0 59
8 0 63
10 0 67
11 0 71
12 0 75
13 0 79
14 0 83
15 0 87
16 0 91
17 0 95
18 0 99
20 0 103
21 0 107
22 0 111
23 0 115
24 0 119
25 0 123
26 0 127
27 0 131
29 0 136
31 0 139
34 0 142
37 0 146
40 0 149
43 0 152
46 0 156
49 0 159
52 0 163
55 0 166
58 0 169
61 0 173
64 0 176
67 0 180
70 0 183
73 0 186
76 0 190
79 0 193
82 0 197
85 0 200
88 0 203
91 0 207
94 0 210
97 0 214
100 0 217
103 0 221
105 0 219
107 0 217
110 0 215
112 0 213
115 0 211
117 0 209
119 0 207
122 0 205
124 0 203
127 0 201
129 0 199
132 0 197
134 0 195
136 0 193
139 0 191
141 0 189
144 0 187
146 0 185
149 0 183
151 0 181
153 0 179
156 0 177
158 0 175
161 0 173
163 0 171
166 0 170
167 0 166
168 0 162
170 0 159
171 0 155
172 1 152
174 1 148
175 1 145
176 1 141
178 2 138
179 2 134
180 2 131
182 2 127
183 3 124
185 3 120
186 3 117
187 3 113
189 4 110
190 4 106
191 4 103
193 4 99
194 5 96
195 5 92
197 5 89
198 5 85
200 6 82
201 8 78
202 10 75
204 13 72
205 15 69
206 18 66
208 20 63
209 22 60
210 25 57
212 27 54
213 30 51
214 32 48
216 35 45
217 37 41
218 39 38
220 42 35
221 44 32
222 47 29
224 49 26
225 52 23
226 54 20
228 56 17
229 59 14
230 61 11
232 64 8
233 66 5
235 69 2
235 71 1
236 73 1
237 75 1
238 78 1
239 80 1
239 82 1
240 84 1
241 87 1
242 89 1
243 91 1
243 94 1
244 96 1
245 98 0
246 100 0
247 103 0
247 105 0
248 107 0
249 110 0
250 112 0
251 114 0
251 116 0
252 119 0
253 121 0
254 123 0
255 126 0
255 127 0
255 129 0
255 131 0
255 132 0
255 134 0
255 136 0
255 138 0
255 139 0
255 141 0
255 143 0
255 145 0
255 146 0
255 148 0
255 150 0
255 151 0
255 153 0
255 155 0
255 157 0
255 158 0
255 160 0
255 162 0
255 164 0
255 165 0
255 167 0
255 169 0
255 171 0
255 172 0
255 174 0
255 176 0
255 178 0
255 180 0
255 181 0
255 183 0
255 185 0
255 187 0
255 189 0
255 190 0
255 192 0
255 194 0
255 196 0
255 198 0
255 199 0
255 201 0
255 203 0
255 205 0
255 207 0
255 208 0
255 210 0
255 212 0
255 214 0
255 216 0
255 217 3
255 219 7
255 220 10
255 222 14
255 223 18
255 225 21
255 226 25
255 228 29
255 229 32
255 231 36
255 232 40
255 234 43
255 235 47
255 237 51
255 238 54
255 240 58
255 241 62
255 243 65
255 244 69
255 246 73
255 247 76
255 249 80
255 250 84
255 252 87
255 253 91
255 255 95
255 255 101
255 255 107
255 255 114
255 255 120
255 255 126
255 255 133
255 255 139
255 255 145
255 255 152
255 255 158
255 255 164
255 255 171
255 255 177
255 255 184
255 255 190
255 255 196
255 255 203
255 255 209
255 255 215
255 255 222
255 255 228
255 255 234
255 255 241
255 255 247
255 255 254
