P3 1 256 255
0 156 140
0 157 141
0 158 142
0 159 143
0 160 144
0 161 145
0 162 146
0 163 147
0 164 148
0 166 149
0 167 150
0 168 151
0 169 152
0 170 153
0 171 154
0 172 155
0 173 156
0 174 157
0 176 158
0 177 159
0 178 160
0 179 161
0 180 162
0 181 163
0 182 164
0 183 165
0 185 167
0 185 168
1 185 170
2 185 172
3 185 174
4 186 175
5 186 177
5 186 179
6 186 181
7 187 182
8 187 184
9 187 186
10 187 188
10 188 189
11 188 191
12 188 193
13 188 195
14 189 196
15 189 198
15 189 200
16 189 202
17 190 203
18 190 205
19 190 207
20 190 209
21 191 211
22 189 211
23 188 212
25 186 213
26 185 213
28 184 214
29 182 215
31 181 215
32 180 216
34 178 217
35 177 217
37 176 218
38 174 219
39 173 219
41 172 220
42 170 221
44 169 222
45 168 222
47 166 223
48 165 224
50 164 224
51 162 225
53 161 226
54 160 226
56 158 227
57 157 228
59 156 229
62 153 229
65 151 230
69 149 231
72 147 232
75 144 233
79 142 234
82 140 234
85 138 235
89 136 236
92 133 237
95 131 238
99 129 239
102 127 239
106 125 240
109 122 241
112 120 242
116 118 243
119 116 244
122 114 244
126 111 245
129 109 246
132 107 247
136 105 248
139 103 249
143 101 250
145 100 249
148 100 249
150 99 249
153 99 249
155 98 249
158 98 249
161 98 249
163 97 249
166 97 248
168 96 248
171 96 248
173 95 248
176 95 248
179 95 248
181 94 248
184 94 248
186 93 248
189 93 247
191 92 247
194 92 247
197 92 247
199 91 247
202 91 247
204 90 247
207 90 247
210 90 247
211 90 246
212 90 245
214 90 244
215 90 243
217 90 242
218 90 241
220 91 240
221 91 239
223 91 239
224 91 238
226 91 237
227 91 236
229 92 235
230 92 234
232 92 233
233 92 232
235 92 232
236 92 231
238 93 230
239 93 229
241 93 228
242 93 227
244 93 226
245 93 225
247 94 225
247 93 222
247 93 220
247 93 218
247 92 216
247 92 213
247 92 211
247 91 209
247 91 207
248 91 204
248 90 202
248 90 200
248 90 198
248 89 195
248 89 193
248 89 191
248 89 189
248 88 187
249 88 184
249 88 182
249 87 180
249 87 178
249 87 175
249 86 173
249 86 171
249 86 169
250 86 167
250 84 164
250 83 162
250 82 160
250 81 158
250 80 156
250 78 154
250 77 152
250 76 150
250 75 148
250 74 146
250 72 144
250 71 142
250 70 140
250 69 138
250 68 136
250 66 134
250 65 132
250 64 130
250 63 128
250 62 126
250 60 124
250 59 122
250 58 120
250 57 118
250 56 116
250 54 114
250 53 113
250 51 112
250 50 111
250 49 110
250 47 108
250 46 107
250 44 106
250 43 105
250 42 104
250 40 102
250 39 101
250 38 100
250 36 99
250 35 98
250 33 96
250 32 95
250 31 94
250 29 93
250 28 92
250 26 90
250 25 89
250 24 88
250 22 87
250 21 86
251 20 85
250 19 82
249 18 80
248 17 78
247 16 75
246 15 73
245 15 71
245 14 68
244 13 66
243 12 64
242 11 61
241 11 59
240 10 57
240 9 54
239 8 52
238 7 50
237 7 47
236 6 45
235 5 43
235 4 40
234 3 38
233 3 36
232 2 33
231 1 31
230 0 29
230 0 27
