P3 1 256 255
15 0 0
18 2 2
21 5 5
25 7 7
28 10 10
31 12 12
35 15 15
38 17 17
41 20 20
45 22 22
48 25 25
51 27 27
55 30 30
58 32 32
61 35 35
65 38 38
68 40 40
71 43 43
75 45 45
78 48 48
81 50 50
85 53 53
88 55 55
91 58 58
95 60 60
98 63 63
102 66 66
103 67 67
105 68 68
106 69 69
108 70 70
110 71 71
111 72 72
113 73 73
114 74 74
116 75 75
118 76 76
119 77 77
121 78 78
122 80 80
124 81 81
126 82 82
127 83 83
129 84 84
130 85 85
132 86 86
134 87 87
135 88 88
137 89 89
138 90 90
140 91 91
142 93 93
143 93 93
144 94 94
145 95 95
147 96 96
148 97 97
149 97 97
150 98 98
152 99 99
153 100 100
154 101 101
155 101 101
157 102 102
158 103 103
159 104 104
161 105 105
162 105 105
163 106 106
164 107 107
166 108 108
167 109 109
168 109 109
169 110 110
171 111 111
172 112 112
173 113 113
175 114 114
175 114 114
176 115 115
177 116 116
178 117 116
179 118 117
180 119 118
181 120 118
182 121 119
182 122 120
183 123 120
184 124 121
185 125 122
186 125 122
187 126 123
188 127 124
189 128 124
189 129 125
190 130 126
191 131 126
192 132 127
193 133 128
194 134 128
195 135 129
196 136 130
197 137 131
197 138 131
197 139 132
198 140 132
198 142 133
199 143 134
199 144 134
199 145 135
200 147 135
200 148 136
201 149 137
201 150 137
202 152 138
202 153 139
202 154 139
203 156 140
203 157 140
204 158 141
204 159 142
205 161 142
205 162 143
205 163 143
206 164 144
206 166 145
207 167 145
207 168 146
208 170 147
208 171 147
208 172 148
209 173 148
209 174 149
210 175 149
210 176 150
210 177 150
211 178 151
211 179 152
212 180 152
212 181 153
212 182 153
213 184 154
213 185 154
214 186 155
214 187 155
214 188 156
215 189 157
215 190 157
216 191 158
216 192 158
216 193 159
217 194 159
217 195 160
218 197 161
218 197 161
218 198 162
219 199 162
219 200 163
219 201 163
220 202 164
220 203 164
221 204 165
221 205 165
221 206 166
222 207 166
222 208 167
223 209 167
223 210 168
223 211 168
224 212 169
224 213 169
224 214 170
225 215 170
225 216 171
226 217 171
226 218 172
226 219 172
227 220 173
227 221 173
228 222 174
228 222 174
228 223 175
229 223 176
229 224 177
229 224 178
230 225 179
230 226 180
230 226 181
231 227 182
231 227 183
231 228 184
232 229 185
232 229 185
233 230 186
233 230 187
233 231 188
234 232 189
234 232 190
234 233 191
235 233 192
235 234 193
235 235 194
236 235 195
236 236 196
237 237 197
237 237 198
237 237 199
238 238 200
238 238 201
238 238 202
239 239 204
239 239 205
239 239 206
240 240 207
240 240 208
240 240 210
241 241 211
241 241 212
241 241 213
242 242 214
242 242 216
242 242 217
243 243 218
243 243 219
243 243 220
244 244 222
244 244 223
244 244 224
245 245 225
245 245 226
246 246 228
246 246 229
246 246 230
247 247 231
247 247 232
247 247 233
248 248 234
248 248 235
248 248 236
249 249 237
249 249 238
249 249 239
250 250 240
250 250 242
251 251 243
251 251 244
251 251 245
252 252 246
252 252 247
252 252 248
253 253 249
253 253 250
253 253 251
254 254 252
254 254 253
254 254 255
