P3 1 256 255
0 0 0
0 7 0
0 14 0
0 22 0
0 29 0
0 37 0
0 44 0
0 52 0
0 59 0
0 67 0
0 74 0
0 82 0
0 89 0
0 97 0
0 104 0
0 112 0
0 119 0
0 127 0
0 134 0
0 141 0
0 149 0
0 156 0
0 164 0
0 171 0
0 179 0
0 186 0
0 194 0
0 201 0
0 209 0
0 216 0
0 224 0
0 231 0
0 239 0
0 246 0
0 254 0
0 254 0
0 254 0
0 254 0
0 254 0
0 254 1
0 254 9
0 254 17
0 254 25
0 254 33
0 254 41
0 254 49
0 254 57
0 254 65
0 254 73
0 254 81
0 254 89
0 254 98
0 254 104
0 254 110
0 254 116
0 254 122
0 254 128
0 254 134
0 254 140
0 254 146
0 254 152
0 254 158
0 254 164
0 254 170
0 254 176
0 254 182
0 254 188
0 254 194
0 254 200
0 254 206
0 254 212
0 254 218
0 254 224
0 254 230
0 254 236
0 254 242
0 254 248
0 254 255
0 246 254
0 238 254
0 230 254
0 223 254
0 215 254
0 207 254
0 200 254
0 192 254
0 184 254
0 177 254
0 169 254
0 161 254
0 153 254
0 146 254
0 138 254
0 130 254
0 123 254
0 115 254
0 107 254
0 100 254
0 92 254
0 84 254
0 76 254
0 69 254
0 61 254
0 53 254
0 46 254
0 38 254
0 30 254
0 23 254
0 15 254
1 7 254
7 0 254
14 0 254
20 0 254
27 0 254
34 0 254
40 0 254
47 0 254
54 0 254
60 0 254
67 0 254
74 0 254
80 0 254
87 0 254
94 0 254
100 0 254
107 0 254
114 0 254
120 0 254
127 0 254
134 0 254
140 0 254
147 0 254
154 0 254
160 0 254
167 0 254
174 0 254
180 0 254
187 0 254
194 0 254
200 0 254
207 0 254
214 0 254
220 0 254
227 0 254
234 0 254
240 0 254
247 0 254
254 0 254
254 0 247
254 0 240
254 0 233
254 0 226
254 0 219
254 0 212
254 0 206
254 0 199
254 0 192
254 0 185
254 0 178
254 0 171
254 0 165
254 0 158
254 0 151
254 0 144
254 0 137
254 0 130
254 0 124
254 0 117
254 0 110
254 0 103
254 0 96
254 0 89
254 0 83
254 0 76
254 0 69
254 0 62
254 0 55
254 0 48
254 0 42
254 0 35
254 0 28
254 0 21
254 0 14
254 0 7
254 0 1
254 0 1
254 1 1
254 8 1
254 15 1
254 23 1
254 30 1
254 38 1
254 45 1
254 53 1
254 60 1
254 67 1
254 75 1
254 82 1
254 90 1
254 97 1
254 105 1
254 112 1
254 120 1
254 127 1
254 134 1
254 142 1
254 149 1
254 157 1
254 164 1
254 172 1
254 179 1
254 187 1
254 194 1
254 201 1
254 209 1
254 216 1
254 224 1
254 231 1
254 239 1
254 246 1
254 254 1
254 254 7
254 254 14
254 254 21
254 254 28
254 254 35
254 254 42
254 254 49
254 254 56
254 254 63
254 254 70
254 254 77
254 254 84
254 254 91
254 254 98
254 254 105
254 254 112
254 254 119
254 254 126
254 254 133
254 254 140
254 254 147
254 254 154
254 254 161
254 254 168
254 254 175
254 254 182
254 254 189
254 254 196
254 254 203
254 254 210
254 254 217
254 254 224
254 254 231
254 254 238
254 254 245
