P3 1 256 255
0 0 0
2 0 1
4 1 3
6 2 4
8 3 6
10 3 7
12 4 9
14 5 10
16 6 12
18 7 13
20 7 15
22 8 17
24 9 18
26 10 20
28 10 21
30 11 23
32 12 24
34 13 26
36 14 27
38 14 29
40 15 31
42 16 32
44 17 34
46 17 35
48 18 37
50 19 38
52 20 40
53 21 41
54 21 43
55 22 45
56 23 46
57 24 48
58 25 49
59 25 51
60 26 52
61 27 54
62 28 55
63 28 57
64 29 59
66 30 60
67 31 62
68 32 63
69 32 65
70 33 66
71 34 68
72 35 69
73 35 71
74 36 73
75 37 74
76 38 76
77 39 77
78 39 79
80 40 80
81 41 82
82 42 83
83 42 85
84 43 87
85 44 88
86 45 90
87 46 91
88 46 93
89 47 94
90 48 96
91 49 97
92 50 99
94 50 101
95 51 102
96 52 104
97 53 105
98 53 107
99 54 108
100 55 110
101 56 111
102 57 113
103 57 114
104 58 116
105 59 118
106 60 119
108 60 121
109 61 122
110 62 124
111 63 125
112 64 127
113 64 128
114 65 130
115 66 132
116 67 133
117 67 135
118 68 136
119 69 138
120 70 139
122 71 141
123 71 142
124 72 144
125 73 146
126 74 147
127 75 149
128 76 150
129 77 152
130 79 153
131 80 155
132 81 156
133 83 158
135 84 160
136 85 161
137 87 163
138 88 164
139 89 166
140 91 167
141 92 169
142 93 170
143 95 172
144 96 174
145 97 175
146 99 177
147 100 178
149 101 180
150 103 181
151 104 183
152 105 184
153 107 186
154 108 188
155 110 189
156 111 191
157 112 192
158 114 194
159 115 195
160 116 197
161 118 198
163 119 200
164 120 202
165 122 202
166 123 202
167 124 203
168 126 203
169 127 204
170 128 204
171 130 205
172 131 205
173 132 206
174 134 206
175 135 207
177 136 207
178 138 208
179 139 208
180 140 209
181 142 209
182 143 210
183 145 210
184 146 211
185 147 211
186 149 212
187 150 212
188 151 213
189 153 213
191 154 214
192 155 214
193 157 215
194 158 215
195 159 216
196 161 216
197 162 217
198 163 217
199 165 218
200 166 218
201 167 218
202 169 219
204 170 219
204 171 220
204 173 220
204 174 221
204 175 221
204 177 222
205 178 222
205 180 223
205 181 223
205 182 224
205 184 224
206 185 225
206 186 225
206 188 226
206 189 226
206 190 227
206 192 227
207 193 228
207 194 228
207 196 229
207 197 229
207 198 230
208 200 230
208 201 231
208 202 231
208 204 232
208 205 232
208 206 233
209 208 233
209 209 234
209 210 234
209 212 235
209 213 235
210 215 235
210 216 235
210 217 235
210 219 235
210 220 235
210 221 235
211 223 235
211 224 235
211 225 235
211 227 235
211 228 236
212 229 236
212 231 236
212 232 236
212 233 236
212 235 236
212 236 236
213 237 236
213 239 236
213 240 236
213 241 236
213 243 237
214 244 237
214 246 237
214 246 237
214 246 237
214 246 237
214 246 237
215 246 237
215 246 237
215 247 237
215 247 237
215 247 237
216 247 238
216 247 238
216 247 238
216 248 238
216 248 238
216 248 238
217 248 238
217 248 238
217 248 238
217 248 238
217 249 238
218 249 239
218 249 239
218 249 239
218 249 239
218 249 239
218 250 239
219 250 239
219 250 239
219 250 239
219 250 239
219 250 239
220 251 239
