P3 1 256 255
0 0 0
3 0 3
6 0 6
9 0 9
12 0 12
15 0 15
18 0 18
21 0 21
24 0 24
27 0 27
30 0 30
33 0 33
36 0 36
39 0 39
42 0 42
45 0 45
48 0 48
51 0 51
54 0 54
57 0 57
60 0 60
63 0 63
66 0 66
69 0 69
72 0 72
75 0 75
78 0 78
78 0 81
78 0 84
78 0 87
79 0 90
79 0 93
79 0 96
80 0 99
80 0 102
80 0 105
81 0 108
81 0 111
81 0 114
82 0 117
82 0 120
82 0 123
83 0 126
83 0 129
83 0 132
84 0 135
84 0 138
84 0 141
85 0 144
85 0 147
85 0 150
86 0 153
84 0 156
82 1 159
81 2 162
79 3 165
78 3 168
76 4 171
75 5 174
73 6 177
72 6 180
70 7 183
69 8 186
67 9 189
65 10 192
64 10 195
62 11 198
61 12 201
59 13 204
58 13 207
56 14 210
55 15 213
53 16 216
52 16 210
50 17 204
49 18 198
47 19 192
46 20 186
44 24 180
43 28 174
41 32 168
40 36 162
38 40 156
37 44 150
35 48 144
34 52 138
32 56 132
31 60 126
29 64 120
28 68 114
26 72 108
25 76 102
23 80 96
22 84 90
20 88 84
19 92 78
17 96 72
16 100 66
14 104 60
13 108 54
11 112 48
10 116 42
9 120 36
11 121 30
13 123 24
16 125 18
18 126 12
20 128 6
23 130 0
25 131 0
27 133 0
30 135 0
32 136 0
34 138 0
37 140 0
39 141 0
41 143 0
44 145 0
46 147 0
48 148 0
51 150 0
53 152 0
55 153 0
58 155 0
60 157 0
62 158 0
65 160 0
67 162 0
70 164 0
73 165 0
77 166 0
80 167 0
84 168 0
87 169 0
91 170 0
94 171 0
98 172 0
101 173 0
105 174 0
108 175 0
112 176 0
115 177 0
119 178 0
122 179 0
126 180 0
129 181 0
133 182 0
136 183 0
140 184 0
143 185 0
147 186 0
150 187 0
154 188 0
158 189 0
161 188 0
164 188 0
168 187 0
171 187 0
175 186 0
178 186 0
182 185 0
185 185 0
189 184 0
192 184 0
196 183 0
199 183 0
203 182 0
206 182 0
209 181 0
213 181 0
216 180 0
220 180 0
223 179 0
227 179 0
230 178 0
234 178 0
237 177 0
241 177 0
244 176 0
248 176 0
248 173 3
248 171 6
248 168 10
249 166 13
249 163 16
249 161 20
249 158 23
250 156 26
250 153 30
250 151 33
251 148 36
251 146 40
251 143 43
251 141 47
252 138 50
252 136 53
252 133 57
253 131 60
253 128 63
253 126 67
253 123 70
254 121 73
254 118 77
254 116 80
255 114 84
255 111 87
255 109 91
255 106 94
255 104 98
255 101 101
255 99 105
255 97 108
255 94 112
255 92 115
255 89 119
255 87 122
255 84 126
255 82 129
255 80 133
255 77 136
255 75 140
255 72 143
255 70 147
255 67 150
255 65 154
255 63 157
255 60 161
255 58 164
255 55 168
255 53 171
255 51 175
255 59 178
255 68 181
255 76 184
255 85 187
255 93 191
255 102 194
255 110 197
255 119 200
255 127 203
255 136 207
255 144 210
255 153 213
255 161 216
255 170 219
255 178 223
255 187 226
255 195 229
255 204 232
255 212 235
255 221 239
255 229 242
255 238 245
255 246 248
255 255 251
255 255 255
