P3 1 256 255
0 0 0
0 1 0
1 3 0
1 5 0
2 6 0
2 8 0
3 10 0
4 11 0
4 13 0
5 15 0
5 16 0
6 18 0
6 20 0
7 21 0
8 23 0
8 25 0
9 27 0
9 28 0
10 30 0
10 32 0
11 33 0
12 35 0
12 37 0
13 38 0
13 40 0
14 42 0
15 44 0
15 45 0
15 47 0
16 49 0
16 50 0
17 52 0
17 54 0
18 56 0
18 57 0
19 59 0
19 61 0
20 62 0
20 64 0
21 66 0
21 68 0
22 69 0
22 71 0
23 73 0
23 74 0
24 76 0
24 78 0
25 80 0
25 81 0
26 83 0
26 85 0
27 87 0
27 88 0
27 90 0
28 92 0
28 93 0
28 95 0
29 97 0
29 98 0
29 100 0
30 102 0
30 103 0
30 105 0
31 107 0
31 108 0
31 110 0
32 112 0
32 114 0
32 115 0
33 117 0
33 119 0
33 120 0
34 122 0
34 124 0
34 125 0
35 127 0
35 129 0
36 131 0
36 132 0
36 134 0
36 136 0
37 137 0
37 139 0
37 141 0
37 143 0
38 144 0
38 146 0
38 148 0
39 149 0
39 151 0
39 153 0
39 155 0
40 156 0
40 158 0
40 160 0
41 161 0
41 163 0
41 165 0
41 167 0
42 168 0
42 170 0
42 172 0
43 174 0
43 175 0
43 177 0
43 179 0
43 180 0
43 182 0
43 184 0
43 186 0
43 187 0
44 189 0
44 191 0
44 193 0
44 194 0
44 196 0
44 198 0
44 199 0
44 201 0
44 203 0
45 205 0
45 206 0
45 208 0
45 210 0
45 212 0
45 213 0
45 215 0
45 217 0
46 219 0
46 219 1
47 220 2
48 221 3
49 221 5
50 222 6
51 223 7
52 223 9
53 224 10
54 225 11
55 225 13
56 226 14
57 227 15
57 227 17
58 228 18
59 229 19
60 229 21
61 230 22
62 231 23
63 231 25
64 232 26
65 233 27
66 233 29
67 234 30
68 235 31
69 236 33
70 236 35
72 236 37
73 236 39
75 236 41
76 236 43
78 236 45
79 237 47
81 237 49
82 237 51
84 237 53
85 237 55
87 237 57
88 238 60
90 238 62
91 238 64
93 238 66
94 238 68
96 238 70
97 238 72
99 239 74
100 239 76
102 239 78
103 239 80
105 239 82
106 239 84
108 240 87
109 240 89
111 240 91
113 240 93
114 240 95
116 241 97
118 241 99
120 241 101
121 241 103
123 241 106
125 242 108
126 242 110
128 242 112
130 242 114
132 242 116
133 243 118
135 243 120
137 243 123
138 243 125
140 243 127
142 244 129
144 244 131
145 244 133
147 244 135
149 244 137
151 245 140
152 245 142
154 245 144
156 245 146
158 245 148
160 245 150
162 246 153
164 246 155
166 246 157
168 246 159
170 246 161
172 247 164
174 247 166
176 247 168
177 247 170
179 247 172
181 248 175
183 248 177
185 248 179
187 248 181
189 248 183
191 249 186
193 249 188
195 249 190
197 249 192
199 249 194
201 250 197
203 250 199
205 250 201
207 250 203
209 250 206
211 251 208
213 251 210
216 251 213
218 251 215
220 251 217
222 252 220
224 252 222
226 252 224
229 252 227
231 252 229
233 253 231
235 253 234
237 253 236
239 253 238
242 253 241
244 254 243
246 254 245
248 254 248
250 254 250
252 254 252
255 255 254
