P3 1 256 255
0 0 0
0 3 3
0 6 6
0 9 9
0 12 12
0 16 16
0 19 19
0 22 22
0 25 25
0 28 28
0 32 32
0 35 35
0 38 38
0 41 41
0 45 45
0 48 48
0 51 51
0 54 54
0 57 57
0 61 61
0 64 64
0 67 67
0 70 70
0 73 73
0 77 77
0 80 80
0 83 83
0 86 86
0 90 90
0 93 93
0 96 96
0 99 99
0 102 102
0 106 106
0 109 109
0 112 112
0 115 115
0 118 118
0 122 122
0 125 125
0 128 128
0 131 131
0 135 135
0 138 138
0 141 141
0 144 144
0 147 147
0 151 151
0 154 154
0 157 157
0 160 160
0 163 163
0 167 167
0 170 170
0 173 173
0 176 176
0 180 180
0 183 183
0 186 186
0 189 189
0 192 192
0 196 196
0 199 199
0 202 202
0 205 205
0 208 208
0 212 212
0 215 215
0 218 218
0 221 221
0 225 225
0 228 228
0 231 231
0 234 234
0 237 237
0 241 241
0 244 244
0 247 247
0 250 250
0 254 254
0 251 251
0 248 248
1 246 246
3 243 243
6 240 240
8 238 238
11 235 235
14 232 232
16 230 230
19 227 227
21 224 224
24 222 222
27 219 219
29 216 216
32 214 214
34 211 211
37 208 208
40 206 206
42 203 203
45 200 200
47 198 198
50 195 195
53 192 192
55 190 190
58 187 187
60 184 184
63 182 182
66 179 179
68 176 176
71 174 174
74 171 171
76 168 168
79 166 166
81 163 163
84 160 160
87 158 158
89 155 155
92 152 152
94 150 150
97 147 147
100 144 144
102 142 142
105 139 139
107 136 136
110 134 134
113 131 131
115 128 128
118 126 126
120 123 123
123 120 120
126 118 118
128 115 115
131 112 112
134 110 110
136 107 107
139 104 104
141 102 102
144 99 99
147 96 96
149 94 94
152 91 91
154 88 88
157 86 86
160 83 83
162 80 80
165 78 78
167 75 75
170 72 72
173 70 70
175 67 67
178 64 64
180 62 62
183 59 59
186 56 56
188 54 54
191 51 51
194 48 48
196 46 46
199 43 43
201 40 40
204 38 38
207 35 35
209 32 32
212 30 30
214 27 27
217 24 24
220 22 22
222 19 19
225 16 16
227 14 14
230 11 11
233 8 8
235 6 6
238 3 3
240 1 1
243 4 1
246 7 1
248 10 1
251 13 1
254 16 1
254 19 1
254 22 1
254 25 1
254 28 1
254 31 1
254 35 1
254 38 1
254 41 1
254 44 1
254 47 1
254 50 1
254 53 1
254 56 1
254 59 1
254 62 1
254 66 1
254 69 1
254 72 1
254 75 1
254 78 1
254 81 1
254 84 1
254 87 1
254 90 1
254 93 1
254 97 1
254 100 1
254 103 1
254 106 1
254 109 1
254 112 1
254 115 1
254 118 1
254 121 1
254 124 1
254 128 1
254 131 1
254 134 1
254 137 1
254 140 1
254 143 1
254 146 1
254 149 1
254 152 1
254 155 1
254 159 1
254 162 1
254 165 1
254 168 1
254 171 1
254 174 1
254 177 1
254 180 1
254 183 1
254 186 1
254 190 1
254 193 1
254 196 1
254 199 1
254 202 1
254 205 1
254 208 1
254 211 1
254 214 1
254 217 1
254 221 1
254 224 1
254 227 1
254 230 1
254 233 1
254 236 1
254 239 1
254 242 1
254 245 1
254 248 1
254 251 1
