P3 1 256 255
0 0 0
0 0 15
0 0 31
0 0 47
0 0 63
0 0 79
0 0 95
0 0 111
0 0 127
0 0 142
0 0 158
0 0 174
0 0 190
0 0 206
0 1 222
0 20 238
0 39 254
0 59 254
0 78 254
0 98 254
0 117 254
0 137 254
0 156 254
0 176 254
0 195 254
0 215 254
0 234 254
1 254 254
3 252 252
5 250 250
7 248 248
9 246 246
11 244 244
13 242 242
15 240 240
17 238 238
19 236 236
21 234 234
23 232 232
25 230 230
27 228 228
29 226 226
31 224 224
33 222 222
35 220 220
37 218 218
39 216 216
41 214 214
43 212 212
45 210 210
47 208 208
49 206 206
51 204 204
53 203 203
55 201 201
57 199 199
59 197 197
61 195 195
63 193 193
65 191 191
67 189 189
69 187 187
71 185 185
73 183 183
75 181 181
77 179 179
79 177 177
81 175 175
83 173 173
85 171 171
87 169 169
89 167 167
91 165 165
93 163 163
95 161 161
97 159 159
99 157 157
101 155 155
103 153 153
105 152 152
107 150 150
109 148 148
111 146 146
113 144 144
115 142 142
117 140 140
119 138 138
121 136 136
123 134 134
125 132 132
127 130 130
128 128 128
130 126 126
132 124 124
134 122 122
136 120 120
138 118 118
140 116 116
142 114 114
144 112 112
146 110 110
148 108 108
150 106 106
152 104 104
154 102 102
156 101 101
158 99 99
160 97 97
162 95 95
164 93 93
166 91 91
168 89 89
170 87 87
172 85 85
174 83 83
176 81 81
178 79 79
180 77 77
182 75 75
184 73 73
186 71 71
188 69 69
190 67 67
192 65 65
194 63 63
196 61 61
198 59 59
200 57 57
202 55 55
204 53 53
206 51 51
208 50 50
210 48 48
212 46 46
214 44 44
216 42 42
218 40 40
220 38 38
222 36 36
224 34 34
226 32 32
228 30 30
230 28 28
232 26 26
234 24 24
236 22 22
238 20 20
240 18 18
242 16 16
244 14 14
246 12 12
248 10 10
250 8 8
252 6 6
254 4 4
254 2 2
254 1 1
254 2 1
254 4 1
254 6 1
254 8 1
254 10 1
254 12 1
254 14 1
254 16 1
254 18 1
254 20 1
254 22 1
254 24 1
254 26 1
254 28 1
254 30 1
254 32 1
254 34 1
254 36 1
254 38 1
254 40 1
254 42 1
254 44 1
254 46 1
254 48 1
254 50 1
254 52 1
254 54 1
254 56 1
254 58 1
254 60 1
254 62 1
254 64 1
254 66 1
254 68 1
254 70 1
254 72 1
254 74 1
254 76 1
254 78 1
254 80 1
254 82 1
254 84 1
254 86 1
254 88 1
254 90 1
254 92 1
254 94 1
254 96 1
254 98 1
254 100 1
254 102 1
254 104 1
254 106 1
254 108 1
254 110 1
254 112 1
254 114 1
254 116 1
254 118 1
254 120 1
254 122 1
254 124 1
254 126 1
254 128 1
254 130 1
254 132 1
254 134 1
254 136 1
254 138 1
254 140 1
254 142 1
254 144 1
254 146 1
254 148 1
254 150 1
254 152 1
254 154 1
254 156 1
254 158 1
254 160 1
254 162 1
254 164 1
254 166 1
254 168 1
254 170 1
254 172 1
254 174 1
254 176 1
254 178 1
254 180 1
254 182 1
254 184 1
254 186 1
254 188 1
254 190 1
254 192 1
254 194 1
254 196 1
254 197 1
