P3 1 256 255
0 0 0
1 0 0
2 0 0
4 0 0
5 0 0
6 0 0
8 0 0
9 0 0
11 0 0
12 0 0
13 0 0
15 0 0
16 0 0
17 0 0
19 0 0
20 0 0
22 0 0
23 0 0
24 0 0
26 0 0
27 0 0
29 0 0
30 0 0
31 0 0
33 0 0
34 0 0
36 0 0
37 0 0
38 0 0
40 0 0
41 0 0
42 0 0
44 0 0
45 0 0
47 0 0
48 0 0
49 0 0
51 0 0
52 0 0
54 0 0
55 0 0
56 0 0
58 0 0
59 0 0
61 0 0
62 0 0
63 0 0
65 0 0
66 0 0
68 0 0
69 0 0
71 0 0
72 0 0
73 0 0
75 0 0
76 0 0
77 0 0
79 0 0
80 0 0
82 0 0
83 0 0
84 0 0
86 0 0
87 0 0
88 0 0
90 0 0
91 0 0
93 0 0
94 0 0
95 0 0
97 0 0
98 0 0
100 0 0
101 0 0
102 0 0
104 0 0
105 0 0
107 0 0
108 0 0
109 0 0
111 0 0
112 0 0
113 0 0
115 0 0
116 0 0
118 0 0
119 0 0
120 0 0
122 0 0
123 0 0
125 0 0
126 0 0
127 0 0
129 0 0
130 0 0
132 0 0
133 0 0
134 0 0
136 0 0
137 0 0
139 0 0
140 0 0
142 0 0
143 0 0
144 0 0
146 0 0
147 0 0
149 0 0
150 0 0
151 0 0
153 0 0
154 0 0
156 0 0
157 0 0
159 0 0
160 0 0
161 0 0
163 0 0
164 0 0
166 0 0
167 0 0
169 0 0
170 0 0
171 0 0
173 0 0
174 0 0
176 0 0
177 0 0
179 0 0
180 2 0
181 5 0
183 8 0
184 11 0
185 13 0
187 16 0
188 19 0
190 22 0
191 25 0
192 27 0
194 30 0
195 33 0
197 36 0
198 39 0
199 41 0
201 44 0
202 47 0
204 50 0
205 53 0
206 55 0
208 58 0
209 61 0
211 64 0
212 67 0
214 70 0
215 72 0
216 75 0
218 78 0
219 81 0
220 83 0
222 86 0
223 89 0
225 92 0
226 94 0
227 97 0
229 100 0
230 103 0
231 105 0
233 108 0
234 111 0
236 114 0
237 117 0
238 119 0
240 122 0
241 125 0
243 128 0
244 130 0
245 133 0
247 136 0
248 139 0
250 142 0
250 144 1
250 147 3
250 150 5
250 153 7
251 155 9
251 158 11
251 161 13
251 164 15
251 167 16
252 169 18
252 172 20
252 175 22
252 178 24
252 181 26
253 183 28
253 186 30
253 189 31
253 192 33
253 195 35
254 197 37
254 200 39
254 203 41
254 206 43
254 209 45
255 212 47
255 213 51
255 215 55
255 216 59
255 218 63
255 220 67
255 221 71
255 223 75
255 225 79
255 226 83
255 228 87
255 230 91
255 231 95
255 233 99
255 235 103
255 236 107
255 238 111
255 240 115
255 241 119
255 243 123
255 245 127
255 246 131
255 248 135
255 250 139
255 251 143
255 253 147
255 255 151
255 255 155
255 255 159
255 255 163
255 255 167
255 255 171
255 255 175
255 255 179
255 255 183
255 255 187
255 255 191
255 255 195
255 255 199
255 255 203
255 255 207
255 255 211
255 255 215
255 255 219
255 255 223
255 255 227
255 255 231
255 255 235
255 255 239
255 255 243
255 255 247
255 255 251
