P3 1 256 255
0 0 255
0 0 254
0 1 254
0 2 253
0 3 253
0 4 252
0 5 252
0 6 251
0 7 251
0 8 250
0 9 250
0 10 249
0 11 249
0 12 248
0 13 248
0 14 247
0 15 247
0 16 246
0 17 246
0 18 245
0 19 245
0 20 244
0 21 244
0 22 243
0 23 243
0 24 242
0 25 242
0 26 241
0 27 240
0 28 240
0 29 239
0 30 239
0 31 238
0 32 238
0 33 237
0 34 237
0 35 236
0 36 236
0 37 235
0 38 235
0 39 234
0 40 234
0 41 233
0 42 233
0 43 232
0 44 232
0 45 231
0 46 231
0 47 230
0 48 230
0 49 229
0 51 229
0 51 228
0 52 228
0 53 227
0 54 227
0 55 226
0 56 226
0 57 225
0 58 225
0 59 224
0 60 224
0 61 223
0 62 223
0 63 222
0 64 222
0 65 221
0 66 221
0 67 220
0 68 220
0 69 219
0 70 219
0 71 218
0 72 218
0 73 217
0 74 217
0 75 216
0 76 216
0 77 215
0 78 215
0 79 214
0 80 214
0 81 213
0 82 213
0 83 212
0 84 212
0 85 211
0 86 211
0 87 210
0 88 210
0 89 209
0 90 209
0 91 208
0 92 208
0 93 207
0 94 207
0 95 206
0 96 206
0 97 205
0 98 205
0 99 204
0 100 204
0 102 204
0 102 203
0 103 203
0 104 202
0 105 202
0 106 201
0 107 201
0 108 200
0 109 200
0 110 199
0 111 199
0 112 198
0 113 198
0 114 197
0 115 197
0 116 196
0 117 196
0 118 195
0 119 195
0 120 194
0 121 194
0 122 193
0 123 193
0 124 192
0 125 192
0 126 191
0 127 191
0 128 190
0 129 189
0 130 189
0 131 188
0 132 188
0 133 187
0 134 187
0 135 186
0 136 186
0 137 185
0 138 185
0 139 184
0 140 184
0 141 183
0 142 183
0 143 182
0 144 182
0 145 181
0 146 181
0 147 180
0 148 180
0 149 179
0 150 179
0 151 178
0 153 178
0 153 177
0 154 177
0 155 176
0 156 176
0 157 175
0 158 175
0 159 174
0 160 174
0 161 173
0 162 173
0 163 172
0 164 172
0 165 171
0 166 171
0 167 170
0 168 170
0 169 169
0 170 169
0 171 168
0 172 168
0 173 167
0 174 167
0 175 166
0 176 166
0 177 165
0 178 165
0 179 164
0 180 164
0 181 163
0 182 163
0 183 162
0 184 162
0 185 161
0 186 161
0 187 160
0 188 160
0 189 159
0 190 159
0 191 158
0 192 158
0 193 157
0 194 157
0 195 156
0 196 156
0 197 155
0 198 155
0 199 154
0 200 154
0 201 153
0 202 153
0 204 153
0 204 152
0 205 152
0 206 151
0 207 151
0 208 150
0 209 150
0 210 149
0 211 149
0 212 148
0 213 148
0 214 147
0 215 147
0 216 146
0 217 146
0 218 145
0 219 145
0 220 144
0 221 144
0 222 143
0 223 143
0 224 142
0 225 142
0 226 141
0 227 141
0 228 140
0 229 140
0 230 139
0 231 138
0 232 138
0 233 137
0 234 137
0 235 136
0 236 136
0 237 135
0 238 135
0 239 134
0 240 134
0 241 133
0 242 133
0 243 132
0 244 132
0 245 131
0 246 131
0 247 130
0 248 130
0 249 129
0 250 129
0 251 128
0 252 128
0 253 127
0 255 126
